<?xml version="1.0" standalone="no"?>
<!DOCTYPE svg PUBLIC "-//W3C//DTD SVG 20010904//EN"
 "http://www.w3.org/TR/2001/REC-SVG-20010904/DTD/svg10.dtd">
<svg version="1.0" xmlns="http://www.w3.org/2000/svg"
 width="680.000000pt" height="680.000000pt" viewBox="0 0 680.000000 680.000000"
 preserveAspectRatio="xMidYMid meet">

<g transform="translate(0.000000,680.000000) scale(0.100000,-0.100000)"
fill="#000000" stroke="none">
<path d="M1950 6240 c0 -5 -25 -10 -55 -10 l-55 0 0 -135 0 -135 45 0 c33 0
45 -4 45 -15 0 -11 -12 -15 -50 -15 l-50 0 0 -35 0 -35 55 0 55 0 0 -35 c0
-19 0 -38 0 -42 0 -8 -5 -9 -66 -11 l-42 -2 -7 -74 c-3 -40 -3 -106 1 -145 l7
-71 58 0 59 0 0 -610 0 -610 -75 0 c-60 0 -75 3 -75 15 0 10 -10 15 -30 15
-19 0 -30 5 -30 14 0 20 -105 28 -325 24 l-180 -3 -3 -32 c-4 -42 -16 -42 -44
2 l-23 35 -245 0 -246 0 -18 -31 c-10 -16 -29 -34 -42 -39 l-24 -10 0 -523 c0
-393 3 -526 12 -535 7 -7 26 -12 43 -12 35 0 60 -14 51 -28 -9 -14 18 -22 80
-22 46 0 54 3 54 19 0 10 7 22 16 25 27 11 384 7 384 -4 0 -5 13 -10 29 -10
20 0 30 -6 34 -20 4 -14 14 -20 35 -20 17 0 34 5 37 11 10 16 -4 24 -17 11
-17 -17 -48 -15 -48 3 0 12 17 15 90 15 81 0 91 -2 88 -17 -2 -14 5 -19 30
-21 27 -3 35 1 39 17 5 18 13 21 65 21 51 0 58 -2 56 -17 -2 -14 5 -19 30 -21
27 -3 35 1 39 17 4 15 13 21 34 21 16 0 29 5 29 10 0 6 32 10 75 10 l75 0 0
-1100 c0 -971 -2 -1100 -15 -1100 -12 0 -15 -15 -15 -74 0 -65 -2 -74 -20 -79
-15 -4 -20 -14 -20 -37 0 -23 5 -33 20 -37 18 -5 20 -14 20 -104 l0 -99 185 0
c179 0 185 1 185 20 0 11 7 23 15 26 9 4 15 19 15 35 0 19 -5 29 -15 29 -12 0
-15 15 -15 72 0 60 -4 76 -21 95 -15 15 -23 40 -27 75 -6 65 -15 78 -58 78
l-34 0 0 1060 c0 700 3 1060 10 1060 6 0 10 -9 10 -20 0 -17 7 -20 44 -20 25
0 48 5 51 10 14 22 25 8 25 -33 0 -40 3 -45 35 -60 l35 -17 0 -270 c0 -208 3
-271 13 -274 72 -19 72 -19 72 -66 0 -47 0 -47 -72 -66 -18 -5 -19 -914 -1
-932 9 -9 93 -12 318 -12 l307 0 23 25 c20 22 32 25 87 25 56 0 63 2 63 20 0
19 7 20 230 20 223 0 230 -1 230 -20 0 -19 7 -20 168 -20 167 0 169 0 192 -25
20 -21 33 -25 82 -25 32 0 58 -4 58 -10 0 -5 16 -10 35 -10 19 0 35 5 35 10 0
6 43 10 108 10 71 0 112 4 120 12 9 9 12 131 12 488 l0 476 -35 34 -35 34 0
276 0 276 35 34 c35 34 35 34 35 124 l0 91 100 -3 100 -3 0 -1100 0 -1099 -33
0 c-44 0 -57 -15 -57 -67 0 -45 -23 -103 -40 -103 -15 0 -13 -127 3 -133 6 -2
0 -8 -16 -12 -21 -6 -27 -13 -27 -36 0 -19 5 -29 15 -29 9 0 15 -9 15 -25 l0
-25 185 0 185 0 1 28 c0 15 0 60 0 99 -1 67 0 73 19 73 17 0 20 7 20 40 0 34
-3 40 -20 40 -12 0 -20 6 -19 13 1 6 1 40 0 75 -1 48 -4 62 -16 62 -13 0 -15
129 -15 1099 l0 1099 75 4 c55 2 75 0 75 -9 0 -8 12 -13 29 -13 20 0 30 -6 34
-20 7 -29 67 -29 67 0 0 18 7 20 60 20 52 0 60 -2 58 -17 -2 -14 5 -19 30 -21
27 -3 35 1 39 17 5 18 13 21 65 21 51 0 58 -2 56 -17 -2 -14 5 -19 30 -21 27
-3 35 1 39 17 4 15 13 21 34 21 28 0 29 2 29 50 0 28 -4 50 -10 50 -5 0 -10
-4 -10 -9 0 -5 -6 -11 -14 -14 -11 -5 -12 0 -3 23 8 21 8 35 -1 54 -9 21 -9
24 3 19 8 -3 15 -11 15 -19 0 -8 5 -14 10 -14 6 0 10 17 10 38 2 298 -2 797
-6 801 -3 3 -9 -1 -15 -9 -8 -13 -10 -13 -19 0 -5 8 -9 24 -9 35 1 17 2 16 10
-5 7 -20 7 -17 3 13 -3 22 -1 37 6 37 5 0 10 -7 10 -15 0 -8 4 -15 9 -15 12 0
17 55 11 105 l-5 40 -180 3 c-220 4 -325 -4 -325 -24 0 -9 -11 -14 -30 -14
-20 0 -30 -5 -30 -15 0 -12 -15 -15 -75 -15 l-75 0 2 613 3 612 63 3 62 3 0
144 0 145 -48 0 c-69 0 -82 18 -82 108 l0 72 54 0 c64 0 66 3 66 135 0 132 -2
135 -66 135 -30 0 -54 5 -54 10 0 6 -44 10 -112 10 -113 0 -113 0 -125 -27
-16 -34 -16 -55 0 -73 10 -12 9 -12 -5 -1 -12 9 -18 10 -18 2 0 -7 -13 -9 -39
-5 -37 6 -38 5 -44 -26 -10 -46 1 -80 25 -80 17 0 19 -4 13 -22 -4 -13 -10
-71 -12 -130 -3 -60 -9 -108 -14 -108 -5 0 -9 -18 -9 -40 l0 -40 -1100 0
-1100 0 0 35 c0 19 -4 35 -10 35 -6 0 -10 38 -10 94 0 56 -6 110 -15 135 -14
41 -14 41 10 41 24 0 25 3 25 56 l0 56 -55 -6 c-52 -5 -78 5 -54 20 8 4 9 3 5
-4 -4 -7 -2 -12 3 -12 14 0 14 1 0 56 l-11 44 -119 0 c-73 0 -119 -4 -119 -10z
m143 -7 c-24 -2 -62 -2 -85 0 -24 2 -5 4 42 4 47 0 66 -2 43 -4z m74 1 c-3 -3
-12 -4 -19 -1 -8 3 -5 6 6 6 11 1 17 -2 13 -5z m2480 0 c-3 -3 -12 -4 -19 -1
-8 3 -5 6 6 6 11 1 17 -2 13 -5z m-2747 -24 c0 -5 -11 -10 -25 -10 -14 0 -25
5 -25 10 0 6 11 10 25 10 14 0 25 -4 25 -10z m190 -10 c0 -19 -7 -20 -90 -20
-83 0 -90 1 -90 20 0 19 7 20 90 20 83 0 90 -1 90 -20z m50 10 c0 -5 -9 -10
-20 -10 -11 0 -20 5 -20 10 0 6 9 10 20 10 11 0 20 -4 20 -10z m30 -105 c0
-70 -4 -115 -10 -115 -6 0 -10 45 -10 115 0 70 4 115 10 115 6 0 10 -45 10
-115z m2470 0 c0 -70 -4 -115 -10 -115 -6 0 -10 45 -10 115 0 70 4 115 10 115
6 0 10 -45 10 -115z m50 105 c0 -5 -6 -10 -14 -10 -8 0 -18 5 -21 10 -3 6 3
10 14 10 12 0 21 -4 21 -10z m200 3 c-1 -28 -20 -34 -101 -31 -70 3 -84 6 -87
21 -3 15 6 17 92 17 53 0 96 -3 96 -7z m50 -3 c0 -5 -9 -10 -20 -10 -11 0 -20
5 -20 10 0 6 9 10 20 10 11 0 20 -4 20 -10z m-3040 -30 c0 -6 40 -10 100 -10
60 0 100 4 100 10 0 6 9 10 20 10 19 0 20 -7 20 -96 l0 -96 -25 4 c-19 4 -25
1 -25 -13 0 -17 -9 -19 -90 -19 -72 0 -90 3 -90 15 0 11 19 15 83 18 45 2 31
3 -30 2 l-113 -2 0 93 c0 94 0 94 25 94 14 0 25 -4 25 -10z m2790 0 c0 -6 40
-10 100 -10 60 0 100 4 100 10 0 6 12 10 28 10 l27 0 -3 -92 -3 -93 -145 0
-144 0 0 93 c0 85 1 92 20 92 11 0 20 -4 20 -10z m-2400 -58 c0 -11 -7 -18
-20 -18 -13 0 -20 7 -20 18 0 11 7 18 20 18 13 0 20 -7 20 -18z m2250 3 c0 -8
-7 -15 -15 -15 -8 0 -15 7 -15 15 0 8 7 15 15 15 8 0 15 -7 15 -15z m37 -31
c-3 -3 -12 -4 -19 -1 -8 3 -5 6 6 6 11 1 17 -2 13 -5z m-2287 -26 c0 -11 -7
-18 -20 -18 -13 0 -20 7 -20 18 0 11 7 18 20 18 13 0 20 -7 20 -18z m2250 -3
c0 -8 -7 -15 -15 -15 -8 0 -15 7 -15 15 0 8 7 15 15 15 8 0 15 -7 15 -15z
m-2306 -30 c-6 -16 -54 -21 -54 -7 0 15 12 22 36 22 17 0 22 -4 18 -15z m2376
0 c0 -9 -9 -15 -25 -15 -18 0 -23 4 -19 15 4 8 15 15 25 15 10 0 19 -7 19 -15z
m-2364 -34 c-10 -16 -46 -20 -46 -5 0 8 10 14 26 14 14 0 23 -4 20 -9z m2344
-1 c0 -5 -9 -10 -20 -10 -11 0 -20 5 -20 10 0 6 9 10 20 10 11 0 20 -4 20 -10z
m298 -17 c3 -10 -20 -13 -92 -13 -80 0 -96 3 -96 15 0 13 15 15 92 13 62 -2
93 -7 96 -15z m-2988 -3 c0 -5 -11 -10 -25 -10 -14 0 -25 5 -25 10 0 6 11 10
25 10 14 0 25 -4 25 -10z m240 0 c0 -5 -9 -10 -20 -10 -11 0 -20 5 -20 10 0 6
9 10 20 10 11 0 20 -4 20 -10z m129 -117 c1 -56 -3 -93 -9 -93 -6 0 -10 44 -9
113 0 72 3 105 9 92 5 -11 9 -62 9 -112z m2421 117 c0 -5 -9 -10 -21 -10 -11
0 -17 5 -14 10 3 6 13 10 21 10 8 0 14 -4 14 -10z m250 0 c0 -5 -9 -10 -20
-10 -11 0 -20 5 -20 10 0 6 9 10 20 10 11 0 20 -4 20 -10z m-2700 -73 l0 -74
-30 5 c-30 4 -30 5 -30 67 0 52 3 64 18 68 41 11 42 9 42 -66z m2309 -4 c-2
-124 -17 -145 -18 -25 -1 62 3 102 9 102 6 0 10 -32 9 -77z m52 67 c5 0 9 -29
9 -65 0 -36 -4 -65 -9 -65 -5 0 -16 -3 -25 -6 -14 -5 -16 5 -16 71 0 66 2 76
16 71 9 -3 20 -6 25 -6z m-2431 -40 c0 -16 -4 -30 -10 -30 -11 0 -14 43 -3 53
11 12 13 8 13 -23z m-125 10 c-3 -5 -29 -10 -56 -10 -31 0 -48 4 -44 10 3 6
29 10 56 10 31 0 48 -4 44 -10z m95 -20 c0 -20 5 -30 15 -30 8 0 15 -4 15 -10
0 -6 -33 -10 -80 -10 -79 0 -80 0 -80 25 0 17 6 25 18 25 9 0 26 7 36 15 11 8
32 15 48 15 24 0 28 -4 28 -30z m2500 5 c0 -14 -4 -25 -10 -25 -5 0 -10 11
-10 25 0 14 5 25 10 25 6 0 10 -11 10 -25z m190 -15 l0 -40 -105 0 c-63 0
-105 4 -105 10 0 6 7 10 15 10 10 0 15 10 15 30 l0 30 90 0 90 0 0 -40z
m-2983 -27 c-3 -10 -5 -4 -5 12 0 17 2 24 5 18 2 -7 2 -21 0 -30z m132 10 c0
-16 -3 -22 -6 -15 -3 7 -24 12 -53 12 -29 0 -50 -5 -53 -12 -3 -7 -6 -1 -6 15
-1 27 0 27 59 27 59 0 60 0 59 -27z m18 -10 c-3 -10 -5 -4 -5 12 0 17 2 24 5
18 2 -7 2 -21 0 -30z m-54 -10 c-13 -2 -33 -2 -45 0 -13 2 -3 4 22 4 25 0 35
-2 23 -4z m67 -53 c0 -36 -2 -40 -25 -40 -22 0 -25 4 -25 40 0 36 3 40 25 40
23 0 25 -4 25 -40z m70 11 c0 -24 -3 -28 -24 -24 -17 4 -25 0 -29 -14 -3 -10
-5 1 -6 25 -1 40 0 42 29 42 26 0 30 -3 30 -29z m60 -11 c0 -33 -3 -40 -20
-40 -17 0 -20 7 -20 40 0 33 3 40 20 40 17 0 20 -7 20 -40z m30 -5 c0 -25 -4
-45 -10 -45 -5 0 -10 20 -10 45 0 25 5 45 10 45 6 0 10 -20 10 -45z m2470 5
c0 -22 -4 -40 -10 -40 -5 0 -9 18 -8 40 1 22 5 40 10 40 4 0 8 -18 8 -40z m60
0 c0 -36 -2 -40 -25 -40 -22 0 -25 4 -25 40 0 36 3 40 25 40 23 0 25 -4 25
-40z m70 10 c0 -23 -3 -28 -16 -23 -11 4 -22 -1 -30 -12 -13 -17 -14 -15 -14
23 0 40 1 42 30 42 27 0 30 -3 30 -30z m60 -10 c0 -33 -3 -40 -20 -40 -17 0
-20 7 -20 40 0 33 3 40 20 40 17 0 20 -7 20 -40z m-2620 -25 c0 -16 -6 -25
-15 -25 -9 0 -15 9 -15 25 0 16 6 25 15 25 9 0 15 -9 15 -25z m30 5 c0 -11 -4
-20 -10 -20 -5 0 -10 9 -10 20 0 11 5 20 10 20 6 0 10 -9 10 -20z m2340 0 c0
-21 -15 -27 -25 -10 -7 12 2 30 16 30 5 0 9 -9 9 -20z m30 0 c0 -11 -4 -20
-10 -20 -5 0 -10 9 -10 20 0 11 5 20 10 20 6 0 10 -9 10 -20z m-2590 -75 c0
-25 -1 -25 -90 -25 -89 0 -90 0 -90 25 0 25 1 25 90 25 89 0 90 0 90 -25z m60
0 c0 -20 -5 -25 -25 -25 -20 0 -25 5 -25 25 0 20 5 25 25 25 20 0 25 -5 25
-25z m210 0 l0 -25 -100 0 -100 0 0 25 0 25 100 0 100 0 0 -25z m2420 5 c0
-18 -7 -20 -84 -20 -46 0 -91 -3 -100 -6 -12 -5 -16 0 -16 20 l0 26 100 0 c93
0 100 -1 100 -20z m60 1 c0 -24 -13 -33 -34 -25 -27 10 -20 44 9 44 18 0 25
-5 25 -19z m190 -3 c0 -22 -2 -23 -90 -20 -81 3 -90 5 -90 23 0 17 8 19 90 19
87 0 90 -1 90 -22z m0 -53 c0 -13 -181 -15 -1565 -15 -861 0 -1565 4 -1565 8
0 5 3 12 7 15 3 4 708 7 1565 7 1378 0 1558 -2 1558 -15z m-2927 -52 c-7 -2
-19 -2 -25 0 -7 3 -2 5 12 5 14 0 19 -2 13 -5z m115 0 c-10 -2 -26 -2 -35 0
-10 3 -2 5 17 5 19 0 27 -2 18 -5z m100 0 c-10 -2 -26 -2 -35 0 -10 3 -2 5 17
5 19 0 27 -2 18 -5z m145 0 c-7 -2 -19 -2 -25 0 -7 3 -2 5 12 5 14 0 19 -2 13
-5z m1080 0 c-7 -2 -19 -2 -25 0 -7 3 -2 5 12 5 14 0 19 -2 13 -5z m150 0
c-13 -2 -33 -2 -45 0 -13 2 -3 4 22 4 25 0 35 -2 23 -4z m1010 0 c-7 -2 -19
-2 -25 0 -7 3 -2 5 12 5 14 0 19 -2 13 -5z m285 0 c-16 -2 -40 -2 -55 0 -16 2
-3 4 27 4 30 0 43 -2 28 -4z m40 -35 c3 -17 -76 -18 -1557 -18 -1029 0 -1562
3 -1566 10 -3 6 -3 15 0 20 4 7 530 9 1563 8 1473 -3 1557 -4 1560 -20z
m-2938 -61 c0 -21 -3 -22 -90 -19 -85 3 -90 5 -90 25 0 21 3 22 90 19 85 -3
90 -5 90 -25z m270 8 l0 -25 -100 0 c-93 0 -100 1 -100 20 0 17 8 20 93 23 50
1 95 4 100 5 4 1 7 -9 7 -23z m2210 -2 c-5 -74 -7 -73 70 -73 l70 0 0 -600 0
-600 -335 0 -335 0 0 128 0 128 35 34 c32 31 35 38 35 95 0 57 -3 64 -35 95
-34 33 -35 37 -35 107 l0 73 55 0 55 0 0 140 0 140 -55 0 c-30 0 -55 5 -55 10
0 6 -45 10 -116 10 -107 0 -116 -1 -121 -20 -3 -11 -9 -20 -13 -20 -4 0 -8 -6
-7 -12 2 -57 -1 -60 -48 -54 l-45 5 0 -55 c0 -50 2 -54 23 -53 16 1 18 2 5 6
-20 5 -25 35 -6 30 6 -1 14 7 16 17 3 14 0 17 -12 13 -11 -4 -16 -1 -16 11 0
11 8 18 20 18 17 0 20 -7 20 -52 0 -28 -7 -71 -15 -94 -11 -30 -15 -84 -15
-185 0 -115 3 -145 15 -155 12 -10 15 -44 15 -186 l0 -174 -270 0 -270 0 0
173 c0 109 4 177 11 184 12 12 7 334 -5 371 -7 18 -5 22 12 22 23 0 35 34 26
78 -6 27 -9 29 -45 26 -26 -2 -39 1 -39 9 0 8 -4 7 -11 -3 -8 -12 -9 -10 -4 7
3 13 1 39 -6 58 l-13 35 -113 0 c-69 0 -113 -4 -113 -10 0 -5 -25 -10 -55 -10
l-55 0 0 -140 0 -140 41 0 c51 0 49 -24 -2 -27 -19 -1 -40 -2 -46 -2 -8 -1
-13 -14 -13 -31 l0 -30 60 0 60 0 0 -31 c0 -21 -10 -40 -30 -61 -27 -27 -30
-35 -30 -97 0 -64 2 -69 35 -101 l35 -34 0 -123 0 -123 -340 0 -340 0 0 600 0
600 75 0 75 0 0 50 0 50 1101 0 1101 0 -2 -27z m210 2 l0 -25 -100 0 -100 0 0
25 0 25 100 0 100 0 0 -25z m60 0 c0 -20 -5 -25 -25 -25 -20 0 -25 5 -25 25 0
20 5 25 25 25 20 0 25 -5 25 -25z m190 0 c0 -25 -1 -25 -90 -25 -89 0 -90 0
-90 25 0 25 1 25 90 25 89 0 90 0 90 -25z m-2880 -7 c0 -18 -6 -23 -25 -23
-19 0 -25 5 -25 23 0 17 6 22 25 22 19 0 25 -5 25 -22z m2610 -48 c0 -6 -37
-10 -90 -10 -53 0 -90 4 -90 10 0 6 37 10 90 10 53 0 90 -4 90 -10z m140 -611
c0 -602 0 -609 -20 -609 -20 0 -20 7 -20 614 0 609 0 614 20 609 20 -5 20 -14
20 -614z m-2820 1 l0 -610 -25 0 -25 0 0 610 0 610 25 0 25 0 0 -610z m45 580
c7 0 16 6 18 13 3 6 6 -20 6 -59 1 -71 1 -71 -24 -66 -20 3 -25 0 -25 -16 0
-27 17 -37 35 -22 13 11 15 2 15 -61 0 -54 -3 -70 -11 -62 -16 16 -39 5 -39
-19 0 -16 5 -19 25 -16 25 5 25 5 25 -66 0 -45 -4 -66 -9 -57 -11 17 -41 7
-41 -14 0 -21 30 -31 41 -14 5 9 9 -12 9 -57 0 -71 0 -71 -25 -66 -20 3 -25 0
-25 -16 0 -27 17 -37 35 -22 13 11 15 2 15 -60 0 -62 -2 -71 -15 -60 -18 15
-35 5 -35 -22 0 -16 5 -19 25 -16 25 5 25 5 25 -66 0 -45 -4 -66 -9 -57 -11
17 -41 7 -41 -14 0 -21 30 -31 41 -14 5 9 9 -12 9 -57 0 -71 0 -71 -25 -66
-20 3 -25 0 -25 -16 0 -27 17 -37 35 -22 13 11 15 4 15 -44 0 -56 0 -56 -30
-56 l-30 0 0 613 c1 420 4 607 11 595 5 -10 16 -18 24 -18z m145 20 c-52 -3
-87 -7 -77 -8 16 -2 17 -38 17 -602 0 -593 0 -600 -20 -600 -20 0 -20 7 -20
603 0 332 3 607 7 610 3 4 47 6 97 5 l91 -2 -95 -6z m2554 -17 c14 6 16 -2 16
-57 0 -58 -2 -63 -22 -62 -14 1 -24 -6 -26 -17 -4 -22 27 -35 39 -16 5 9 9
-13 9 -60 0 -56 -3 -72 -11 -64 -16 16 -39 5 -39 -19 0 -16 5 -19 25 -16 25 5
25 5 25 -66 0 -45 -4 -66 -9 -57 -12 19 -43 6 -39 -16 2 -11 12 -18 26 -17 20
1 22 -4 22 -61 0 -61 -1 -62 -25 -57 -20 3 -25 0 -25 -17 0 -26 28 -40 41 -20
5 9 9 -13 9 -60 0 -63 -2 -72 -15 -61 -18 15 -35 5 -35 -22 0 -16 5 -19 25
-16 25 5 25 5 25 -66 0 -45 -4 -66 -9 -57 -12 19 -43 6 -39 -16 2 -11 12 -18
26 -17 20 1 22 -4 22 -61 0 -57 -2 -62 -22 -61 -14 1 -24 -6 -26 -17 -4 -22
27 -35 39 -16 6 9 9 -6 9 -43 0 -58 0 -58 -30 -58 l-30 0 0 612 c0 517 2 609
14 593 8 -11 19 -16 30 -12z m-54 -588 l0 -605 -25 0 -25 0 0 599 0 600 23 4
c12 2 23 5 25 6 1 0 2 -271 2 -604z m-1737 338 c-24 -2 -62 -2 -85 0 -24 2 -5
4 42 4 47 0 66 -2 43 -4z m87 3 c0 -11 -19 -15 -25 -6 -3 5 1 10 9 10 9 0 16
-2 16 -4z m725 -6 c-3 -5 -10 -10 -16 -10 -5 0 -9 5 -9 10 0 6 7 10 16 10 8 0
12 -4 9 -10z m148 3 c-23 -2 -64 -2 -90 0 -26 2 -7 3 42 3 50 0 71 -1 48 -3z
m-1143 -23 c0 -5 -11 -10 -25 -10 -14 0 -25 5 -25 10 0 6 11 10 25 10 14 0 25
-4 25 -10z m190 -10 c0 -19 -7 -20 -90 -20 -83 0 -90 1 -90 20 0 19 7 20 90
20 83 0 90 -1 90 -20z m50 10 c0 -5 -9 -10 -20 -10 -11 0 -20 5 -20 10 0 6 9
10 20 10 11 0 20 -4 20 -10z m800 0 c0 -5 -9 -10 -20 -10 -11 0 -20 5 -20 10
0 6 9 10 20 10 11 0 20 -4 20 -10z m190 -10 c0 -19 -7 -20 -90 -20 -83 0 -90
1 -90 20 0 19 7 20 90 20 83 0 90 -1 90 -20z m60 10 c0 -5 -11 -10 -25 -10
-14 0 -25 5 -25 10 0 6 11 10 25 10 14 0 25 -4 25 -10z m-1020 -110 c0 -67 -4
-110 -10 -110 -6 0 -10 43 -10 110 0 67 4 110 10 110 6 0 10 -43 10 -110z
m720 0 c0 -67 -4 -110 -10 -110 -6 0 -10 43 -10 110 0 67 4 110 10 110 6 0 10
-43 10 -110z m-990 80 c0 -6 40 -10 100 -10 60 0 100 4 100 10 0 6 9 10 20 10
19 0 20 -7 20 -100 0 -93 -1 -100 -20 -100 -11 0 -20 5 -20 10 0 6 -40 10 -99
10 -56 0 -103 -4 -106 -10 -3 -5 -15 -10 -26 -10 -18 0 -19 8 -19 100 l0 100
25 0 c14 0 25 -4 25 -10z m1040 0 c0 -6 40 -10 100 -10 60 0 100 4 100 10 0 6
11 10 25 10 l25 0 0 -100 0 -100 -25 0 c-14 0 -25 5 -25 10 0 6 -40 10 -100
10 -60 0 -100 -4 -100 -10 0 -5 -9 -10 -20 -10 -19 0 -20 7 -20 100 0 93 1
100 20 100 11 0 20 -4 20 -10z m-660 -64 c0 -7 -7 -13 -15 -13 -8 0 -15 8 -15
18 0 12 5 16 15 13 8 -4 15 -12 15 -18z m-48 -228 c-1 -134 -2 -323 -2 -420 0
-172 -1 -178 -20 -178 -20 0 -21 4 -19 420 l1 420 21 0 22 0 -3 -242z m618
189 c0 -30 -3 -57 -7 -61 -10 -10 -11 -46 -1 -46 4 0 8 -153 8 -340 l0 -340
-25 0 -25 0 0 420 0 420 25 0 c24 0 25 -3 25 -53z m-570 -14 c0 -7 -7 -13 -15
-13 -8 0 -15 6 -15 13 0 8 7 14 15 14 8 0 15 -6 15 -14z m-190 -83 c0 -19 -7
-20 -90 -20 -83 0 -90 1 -90 20 0 19 7 20 90 20 83 0 90 -1 90 -20z m1040 0
c0 -19 -7 -20 -90 -20 -83 0 -90 1 -90 20 0 19 7 20 90 20 83 0 90 -1 90 -20z
m-340 -161 c0 -111 -3 -168 -10 -164 -17 11 -11 335 6 335 2 0 4 -77 4 -171z
m-890 151 c0 -5 -11 -10 -25 -10 -14 0 -25 5 -25 10 0 6 11 10 25 10 14 0 25
-4 25 -10z m236 3 c-10 -11 -36 -12 -36 -2 0 5 10 9 22 9 12 0 18 -3 14 -7z
m34 -3 c0 -5 -4 -10 -10 -10 -5 0 -10 5 -10 10 0 6 5 10 10 10 6 0 10 -4 10
-10z m87 -232 c-1 -46 -3 -9 -3 82 0 91 2 128 3 83 2 -46 2 -120 0 -165z m633
232 c0 -5 -4 -10 -10 -10 -5 0 -10 5 -10 10 0 6 5 10 10 10 6 0 10 -4 10 -10z
m50 0 c0 -5 -9 -10 -20 -10 -11 0 -20 5 -20 10 0 6 9 10 20 10 11 0 20 -4 20
-10z m250 0 c0 -5 -11 -10 -25 -10 -14 0 -25 5 -25 10 0 6 11 10 25 10 14 0
25 -4 25 -10z m-1050 -51 c0 -19 5 -29 15 -29 8 0 15 -4 15 -10 0 -6 -35 -10
-85 -10 -75 0 -85 2 -85 18 0 11 12 22 32 30 17 6 29 15 25 19 -4 4 -13 1 -19
-5 -7 -7 -34 -12 -61 -12 -43 0 -48 2 -37 15 9 11 34 14 106 14 l94 -1 0 -29z
m30 6 c0 -14 -4 -25 -10 -25 -5 0 -10 11 -10 25 0 14 5 25 10 25 6 0 10 -11
10 -25z m720 0 c0 -14 -4 -25 -10 -25 -5 0 -10 11 -10 25 0 14 5 25 10 25 6 0
10 -11 10 -25z m190 -15 l0 -40 -105 0 c-63 0 -105 4 -105 10 0 6 7 10 15 10
10 0 15 10 15 30 l0 30 90 0 90 0 0 -40z m-1243 -32 c-3 -7 -5 -2 -5 12 0 14
2 19 5 13 2 -7 2 -19 0 -25z m134 15 c0 -15 2 -15 9 2 8 19 9 19 9 -2 1 -14
-5 -23 -14 -23 -8 0 -15 5 -15 10 0 6 -20 10 -45 10 -25 0 -45 -4 -45 -10 0
-5 -4 -10 -10 -10 -5 0 -10 9 -10 20 0 18 7 20 60 20 50 0 60 -3 61 -17z m-33
-20 c-10 -2 -28 -2 -40 0 -13 2 -5 4 17 4 22 1 32 -1 23 -4z m62 -298 c0 -278
0 -285 -20 -285 -20 0 -20 7 -20 285 0 278 0 285 20 285 20 0 20 -7 20 -285z
m79 -2 c-1 -159 -4 -278 -6 -265 -5 28 -32 40 -44 21 -5 -9 -9 13 -9 60 0 56
3 72 11 64 15 -15 39 -5 39 17 0 22 -24 32 -39 17 -8 -8 -11 6 -11 56 0 63 1
67 22 64 17 -1 24 4 26 22 3 21 0 23 -22 19 -26 -5 -26 -5 -26 57 0 62 0 62
26 57 22 -4 25 -2 22 19 -2 18 -9 24 -25 23 -19 0 -23 5 -23 28 0 24 4 28 30
28 l30 0 -1 -287z m61 2 l0 -285 -25 0 -25 0 0 285 0 285 25 0 25 0 0 -285z
m30 180 c0 -63 -4 -105 -10 -105 -6 0 -10 42 -10 105 0 63 4 105 10 105 6 0
10 -42 10 -105z m720 0 c0 -63 -4 -105 -10 -105 -6 0 -10 42 -10 105 0 63 4
105 10 105 6 0 10 -42 10 -105z m50 -180 c0 -278 0 -285 -20 -285 -20 0 -20 7
-20 285 0 278 0 285 20 285 20 0 20 -7 20 -285z m79 -2 c-1 -159 -4 -278 -6
-265 -5 28 -32 40 -44 21 -5 -9 -9 13 -9 60 0 56 3 72 11 64 15 -15 39 -5 39
17 0 22 -24 32 -39 17 -8 -8 -11 8 -11 62 0 65 2 72 15 61 12 -10 19 -10 27
-2 17 17 1 45 -22 39 -18 -5 -20 0 -20 58 0 61 0 62 25 57 20 -3 25 0 25 17 0
26 -28 40 -41 20 -6 -10 -9 -2 -9 24 0 35 2 37 30 37 l30 0 -1 -287z m58 -1
l3 -282 -25 0 -25 0 0 278 c0 153 3 282 7 286 4 4 14 5 23 4 13 -3 15 -40 17
-286z m-1127 208 c0 -5 -5 -10 -11 -10 -5 0 -7 5 -4 10 3 6 8 10 11 10 2 0 4
-4 4 -10z m0 -30 c0 -5 -7 -10 -16 -10 -8 0 -12 5 -9 10 3 6 10 10 16 10 5 0
9 -4 9 -10z m1155 0 c3 -5 1 -10 -4 -10 -6 0 -11 5 -11 10 0 6 2 10 4 10 3 0
8 -4 11 -10z m-1167 -27 c-10 -2 -26 -2 -35 0 -10 3 -2 5 17 5 19 0 27 -2 18
-5z m1200 0 c-10 -2 -26 -2 -35 0 -10 3 -2 5 17 5 19 0 27 -2 18 -5z m-1188
-48 c0 -32 -2 -35 -30 -35 -28 0 -30 3 -30 35 0 32 2 35 30 35 28 0 30 -3 30
-35z m1195 0 c0 -25 -4 -30 -27 -33 -26 -3 -28 -1 -28 33 0 34 2 36 28 33 23
-3 27 -8 27 -33z m-975 -45 c0 -5 -4 -10 -10 -10 -5 0 -10 5 -10 10 0 6 5 10
10 10 6 0 10 -4 10 -10z m720 0 c0 -5 -4 -10 -10 -10 -5 0 -10 5 -10 10 0 6 5
10 10 10 6 0 10 -4 10 -10z m-952 -7 c-10 -2 -26 -2 -35 0 -10 3 -2 5 17 5 19
0 27 -2 18 -5z m1200 0 c-10 -2 -26 -2 -35 0 -10 3 -2 5 17 5 19 0 27 -2 18
-5z m-1188 -23 c0 -5 -4 -10 -9 -10 -6 0 -13 5 -16 10 -3 6 1 10 9 10 9 0 16
-4 16 -10z m220 -15 c0 -14 -4 -25 -10 -25 -5 0 -10 11 -10 25 0 14 5 25 10
25 6 0 10 -11 10 -25z m720 0 c0 -14 -4 -25 -10 -25 -5 0 -10 11 -10 25 0 14
5 25 10 25 6 0 10 -11 10 -25z m220 21 c0 -3 -4 -8 -10 -11 -5 -3 -10 -1 -10
4 0 6 5 11 10 11 6 0 10 -2 10 -4z m-932 -74 c2 -7 -3 -12 -12 -12 -9 0 -16 7
-16 16 0 17 22 14 28 -4z m712 3 c0 -8 -7 -15 -15 -15 -16 0 -20 12 -8 23 11
12 23 8 23 -8z m-710 -135 c0 -91 -3 -110 -15 -110 -12 0 -15 19 -15 110 0 91
3 110 15 110 12 0 15 -19 15 -110z m710 0 c0 -91 -3 -110 -15 -110 -12 0 -15
19 -15 110 0 91 3 110 15 110 12 0 15 -19 15 -110z m-2480 -71 c0 -5 -9 -9
-20 -9 -11 0 -20 6 -20 14 0 9 7 12 20 9 11 -3 20 -9 20 -14z m-110 -9 c11
-20 8 -20 -260 -20 -268 0 -271 0 -260 20 10 19 21 20 260 20 239 0 250 -1
260 -20z m170 10 c0 -5 -11 -10 -25 -10 -14 0 -25 5 -25 10 0 6 11 10 25 10
14 0 25 -4 25 -10z m130 0 c0 -5 -25 -10 -55 -10 -30 0 -55 5 -55 10 0 6 25
10 55 10 30 0 55 -4 55 -10z m60 0 c0 -5 -11 -10 -25 -10 -14 0 -25 5 -25 10
0 6 11 10 25 10 14 0 25 -4 25 -10z m120 0 c0 -5 -25 -10 -55 -10 -30 0 -55 5
-55 10 0 6 25 10 55 10 30 0 55 -4 55 -10z m70 0 c0 -5 -11 -10 -25 -10 -14 0
-25 5 -25 10 0 6 11 10 25 10 14 0 25 -4 25 -10z m3380 0 c0 -5 -11 -10 -25
-10 -14 0 -25 5 -25 10 0 6 11 10 25 10 14 0 25 -4 25 -10z m130 0 c0 -5 -25
-10 -56 -10 -34 0 -53 4 -49 10 3 6 28 10 56 10 27 0 49 -4 49 -10z m60 0 c0
-5 -11 -10 -25 -10 -14 0 -25 5 -25 10 0 6 11 10 25 10 14 0 25 -4 25 -10z
m130 0 c0 -6 -27 -10 -60 -10 -33 0 -60 4 -60 10 0 6 27 10 60 10 33 0 60 -4
60 -10z m60 0 c0 -5 -11 -10 -25 -10 -14 0 -25 5 -25 10 0 6 11 10 25 10 14 0
25 -4 25 -10z m50 0 c0 -5 -9 -10 -20 -10 -11 0 -20 5 -20 10 0 6 9 10 20 10
11 0 20 -4 20 -10z m-3750 -30 c0 -6 -99 -10 -276 -10 -181 0 -273 3 -269 10
4 6 107 10 276 10 173 0 269 -4 269 -10z m3760 0 c0 -6 -98 -10 -275 -10 -177
0 -275 4 -275 10 0 6 98 10 275 10 177 0 275 -4 275 -10z m-4320 -456 l0 -436
-82 2 c-46 1 -95 2 -110 1 l-28 -1 0 -90 0 -90 -197 2 -198 3 -3 500 c-1 275
0 510 3 523 l5 22 305 0 305 0 0 -436z m4130 406 l0 -30 -1785 0 -1785 0 0 30
0 30 1785 0 1785 0 0 -30z m110 21 c0 -5 8 -12 18 -14 9 -3 0 -5 -20 -6 -20 0
-40 3 -43 9 -4 6 1 7 11 3 12 -4 15 -3 10 5 -4 7 -1 12 8 12 9 0 16 -4 16 -9z
m-3700 -76 l0 -75 -93 0 c-145 0 -197 -24 -218 -102 -13 -50 11 -107 75 -173
25 -27 46 -49 46 -51 0 -1 -8 -4 -18 -6 -20 -6 -26 -46 -10 -65 17 -21 52 -15
64 11 9 20 8 28 -10 46 -17 17 -18 20 -3 14 9 -3 17 -10 17 -14 0 -5 25 -21
55 -36 96 -46 95 -44 95 -290 l0 -214 -260 0 -260 0 0 515 0 515 260 0 260 0
0 -75z m3780 71 c0 -3 -4 -8 -10 -11 -5 -3 -10 -1 -10 4 0 6 5 11 10 11 6 0
10 -2 10 -4z m-145 -63 c-4 -32 -3 -34 4 -13 8 22 9 22 10 4 1 -11 -5 -29 -13
-39 -13 -18 -14 -17 -21 13 l-7 32 -1796 3 -1797 2 1803 3 c1594 2 1802 4
1802 17 0 8 4 15 9 15 6 0 8 -17 6 -37z m56 6 c12 -6 18 -17 15 -25 -3 -8 0
-14 5 -14 7 0 9 11 7 25 -3 14 -1 25 3 25 5 0 9 -13 9 -29 0 -26 -3 -29 -35
-29 -32 0 -35 3 -35 29 0 32 3 34 31 18z m-983 -36 c-494 -2 -1302 -2 -1795 0
-494 1 -90 2 897 2 987 0 1391 -1 898 -2z m882 -43 l0 -30 -1665 0 c-1137 0
-1665 -3 -1665 -10 0 -17 31 -24 41 -9 5 9 9 -12 9 -57 0 -71 0 -71 -25 -66
-20 3 -25 0 -25 -16 0 -27 17 -37 35 -22 13 11 15 7 15 -24 0 -33 -2 -36 -30
-36 l-30 0 0 120 0 120 -115 0 -115 0 0 30 0 30 1785 0 1785 0 0 -30z m40 -10
c0 -5 -5 -10 -11 -10 -5 0 -7 5 -4 10 3 6 8 10 11 10 2 0 4 -4 4 -10z m89 0
c-9 -5 -28 -6 -45 0 -27 8 -26 8 16 9 32 0 40 -2 29 -9z m56 0 c3 -5 1 -10 -4
-10 -6 0 -11 5 -11 10 0 6 2 10 4 10 3 0 8 -4 11 -10z m-3854 -137 c0 -60 3
-102 6 -95 8 19 23 14 23 -8 0 -18 -3 -19 -21 -9 -15 8 -24 8 -32 0 -6 -6 -16
-11 -21 -11 -6 0 -4 5 4 10 11 7 -5 10 -52 10 -66 0 -68 0 -93 37 -36 53 -34
103 6 142 29 29 35 31 105 31 l74 0 1 -107z m49 17 c0 -83 -1 -90 -20 -90 -18
0 -20 7 -20 83 0 85 3 97 27 97 10 0 13 -22 13 -90z m170 -5 c0 -57 4 -95 10
-95 6 0 10 -9 10 -20 0 -19 -7 -20 -100 -20 -93 0 -100 1 -100 20 0 11 5 20
10 20 6 0 10 38 10 95 l0 95 80 0 80 0 0 -95z m50 5 c0 -83 -1 -90 -20 -90
-19 0 -20 7 -20 90 0 83 1 90 20 90 19 0 20 -7 20 -90z m50 -25 c0 -108 -1
-115 -20 -115 -19 0 -20 7 -20 115 0 108 1 115 20 115 19 0 20 -7 20 -115z
m130 1 c0 -130 -7 -176 -26 -176 -11 0 -14 29 -14 145 0 138 1 145 20 145 19
0 20 -7 20 -114z m38 1 c2 -64 -1 -107 -7 -107 -5 0 -12 -8 -14 -17 -3 -10 -5
40 -6 110 -1 99 2 128 12 125 8 -3 13 -37 15 -111z m42 88 c0 -14 5 -25 10
-25 6 0 10 11 10 25 0 16 6 25 15 25 13 0 15 -21 15 -127 0 -97 3 -130 15
-143 13 -14 9 -16 -40 -18 l-55 -2 0 145 c0 122 2 145 15 145 9 0 15 -9 15
-25z m610 -200 l0 -225 -170 0 c-107 0 -170 4 -170 10 0 6 -28 10 -64 10 l-64
0 6 65 5 65 -32 6 c-17 4 -31 13 -31 21 0 8 -7 21 -15 29 -12 12 -15 41 -15
130 l0 114 275 0 275 0 0 -225z m50 0 c0 -218 -1 -225 -20 -225 -19 0 -20 7
-20 225 0 218 1 225 20 225 19 0 20 -7 20 -225z m80 0 l0 -225 -30 0 c-24 0
-30 4 -30 21 0 18 3 19 15 9 18 -15 35 -5 35 22 0 16 -5 19 -25 16 -25 -5 -25
-4 -25 57 0 62 0 62 26 57 22 -4 25 -2 22 19 -2 18 -9 24 -25 23 -21 -1 -23 4
-23 61 0 61 1 62 25 57 20 -3 25 0 25 16 0 27 -17 37 -35 22 -13 -11 -15 -6
-15 29 0 39 2 41 30 41 l30 0 0 -225z m60 0 l0 -225 -25 0 -25 0 0 225 0 225
25 0 25 0 0 -225z m30 180 c0 -25 -4 -45 -10 -45 -5 0 -10 20 -10 45 0 25 5
45 10 45 6 0 10 -20 10 -45z m60 -180 c0 -218 -1 -225 -20 -225 -19 0 -20 7
-20 225 0 218 1 225 20 225 19 0 20 -7 20 -225z m143 204 c6 -22 28 -22 35 -1
2 8 -3 10 -15 6 -17 -5 -17 -5 0 6 21 13 67 5 67 -11 0 -7 -6 -6 -17 2 -14 12
-16 12 -12 0 8 -24 30 -25 36 -2 10 40 33 24 33 -24 0 -44 0 -45 -34 -45 -26
0 -33 4 -32 18 0 9 -6 17 -14 17 -8 0 -15 -7 -15 -15 0 -11 -16 -17 -60 -21
-33 -4 -68 -10 -77 -14 -16 -6 -18 -1 -18 49 l0 56 59 0 c51 0 59 -3 64 -21z
m417 -204 l0 -225 -270 0 -270 0 0 164 0 164 31 11 c18 6 76 11 130 11 l99 0
0 50 0 50 140 0 140 0 0 -225z m60 0 l0 -225 -25 0 -25 0 0 225 0 225 25 0 25
0 0 -225z m40 0 c0 -193 -2 -225 -15 -225 -13 0 -15 32 -15 225 0 193 2 225
15 225 13 0 15 -32 15 -225z m50 0 c0 -218 -1 -225 -20 -225 -19 0 -20 7 -20
225 0 218 1 225 20 225 19 0 20 -7 20 -225z m80 0 l0 -225 -30 0 c-24 0 -30 4
-30 21 0 18 3 19 15 9 18 -15 35 -5 35 22 0 16 -5 19 -25 16 -24 -5 -25 -4
-25 57 0 57 2 62 22 61 14 -1 24 6 26 17 4 22 -27 35 -39 16 -5 -9 -9 13 -9
61 0 55 3 71 11 63 16 -16 39 -5 39 17 0 25 -18 35 -35 20 -13 -11 -15 -6 -15
29 0 39 2 41 30 41 l30 0 0 -225z m60 0 l0 -225 -25 0 -25 0 0 225 0 225 25 0
25 0 0 -225z m98 113 c2 -70 -1 -108 -8 -108 -5 0 -10 -7 -10 -15 0 -8 -7 -15
-15 -15 -8 0 -15 -9 -15 -20 0 -13 -7 -20 -20 -20 -19 0 -20 7 -20 146 l0 145
43 -3 42 -3 3 -107z m42 87 c0 -14 5 -25 10 -25 6 0 10 11 10 25 0 16 6 25 15
25 13 0 15 -21 15 -127 0 -97 3 -130 15 -143 13 -14 9 -16 -40 -18 l-54 -2 -3
145 c-3 133 -2 145 15 145 11 0 17 -8 17 -25z m540 -200 l0 -225 -194 0 c-220
0 -203 -8 -206 89 -1 64 -5 71 -31 71 -11 0 -19 7 -19 16 0 8 -7 22 -15 30
-12 12 -15 41 -15 130 l0 114 240 0 240 0 0 -225z m60 0 l0 -225 -25 0 -25 0
0 225 0 225 25 0 25 0 0 -225z m60 215 c7 10 10 -7 10 -56 0 -67 -1 -71 -22
-70 -14 1 -24 -6 -26 -17 -4 -22 27 -35 39 -16 6 10 9 2 9 -23 0 -36 -2 -38
-30 -38 l-30 0 0 115 c0 113 0 115 20 103 17 -11 22 -10 30 2z m60 -100 c0
-67 4 -110 10 -110 6 0 10 8 11 18 0 14 2 14 9 -3 7 -17 9 -17 9 -2 1 9 6 17
11 17 6 0 10 38 10 95 l0 95 80 0 80 0 0 -95 c0 -57 4 -95 10 -95 6 0 11 -8
11 -17 1 -17 2 -17 6 0 2 9 8 17 13 17 5 0 11 -8 13 -17 3 -10 5 33 6 95 l1
112 125 0 125 0 0 -125 c0 -69 3 -125 8 -125 4 0 5 -25 4 -55 -3 -47 -6 -54
-18 -44 -9 7 -14 25 -12 43 2 21 -1 30 -9 28 -7 -1 -13 2 -13 8 0 5 5 10 11
10 6 0 9 10 7 23 -3 21 -8 22 -107 25 -63 2 -108 -1 -115 -8 -6 -6 -71 -10
-163 -10 l-153 0 0 115 c0 96 3 115 15 115 12 0 15 -19 15 -110z m50 20 c0
-73 -3 -90 -15 -90 -12 0 -15 17 -15 90 0 73 3 90 15 90 12 0 15 -17 15 -90z
m220 0 c0 -83 -1 -90 -20 -90 -19 0 -20 7 -20 90 0 83 1 90 20 90 19 0 20 -7
20 -90z m340 -250 l0 -340 -25 2 c-24 2 -25 5 -25 68 -1 56 -2 63 -14 48 -11
-15 -30 -18 -120 -18 -79 0 -108 3 -112 13 -2 7 -3 59 -2 115 l3 102 37 -20
c36 -19 39 -19 72 -2 48 23 51 39 13 62 -40 25 -54 25 -95 0 l-33 -20 3 37 3
38 76 3 76 3 1 -30 c1 -37 26 -87 51 -101 25 -13 35 -113 10 -105 -25 8 -52
-18 -45 -43 8 -25 47 -30 64 -9 6 7 11 71 11 157 0 80 0 198 1 263 l0 117 25
0 25 0 0 -340z m30 5 c0 -217 -4 -335 -10 -335 -6 0 -10 118 -10 335 0 217 4
335 10 335 6 0 10 -118 10 -335z m17 -167 c-1 -95 -3 -20 -3 167 0 187 2 265
3 173 2 -92 2 -245 0 -340z m73 163 l0 -338 -27 1 -28 1 -3 338 -2 337 30 0
30 0 0 -339z m-2497 226 c3 -7 5 -86 6 -175 1 -139 -1 -162 -14 -162 -12 0
-15 25 -14 175 1 157 7 202 22 162z m-1093 -97 c0 -11 -4 -20 -10 -20 -5 0
-10 9 -10 20 0 11 5 20 10 20 6 0 10 -9 10 -20z m-352 -17 c-10 -2 -28 -2 -40
0 -13 2 -5 4 17 4 22 1 32 -1 23 -4z m3625 0 c-13 -2 -33 -2 -45 0 -13 2 -3 4
22 4 25 0 35 -2 23 -4z m-3273 -22 c0 -6 -54 -10 -127 -10 -105 0 -129 -2
-139 -16 -10 -14 -12 -14 -18 0 -3 9 0 15 9 15 8 0 15 5 15 10 0 6 50 10 130
10 74 0 130 -4 130 -9z m90 -21 c0 -16 -4 -30 -10 -30 -5 0 -10 -7 -10 -16 0
-12 7 -15 25 -12 24 5 25 3 25 -47 0 -51 -1 -52 -30 -53 l-30 -1 0 65 0 64
-31 0 c-24 0 -30 3 -25 16 3 9 6 22 6 30 0 10 12 14 40 14 38 0 40 -2 40 -30z
m17 -17 c-3 -10 -5 -2 -5 17 0 19 2 27 5 18 2 -10 2 -26 0 -35z m2660 0 c-3
-10 -5 -2 -5 17 0 19 2 27 5 18 2 -10 2 -26 0 -35z m93 40 c0 -5 3 -18 6 -30
6 -21 3 -23 -40 -23 -42 0 -46 2 -46 23 0 13 3 27 7 30 9 10 73 9 73 0z m30
-3 c0 -5 -5 -10 -11 -10 -5 0 -7 5 -4 10 3 6 8 10 11 10 2 0 4 -4 4 -10z m210
0 c0 -6 -40 -10 -100 -10 -60 0 -100 4 -100 10 0 6 40 10 100 10 60 0 100 -4
100 -10z m30 0 c0 -5 -4 -10 -10 -10 -5 0 -10 5 -10 10 0 6 5 10 10 10 6 0 10
-4 10 -10z m-3430 -32 l0 -29 -31 18 c-54 32 -57 43 -10 41 38 -1 41 -3 41
-30z m3447 0 c-3 -7 -5 -2 -5 12 0 14 2 19 5 13 2 -7 2 -19 0 -25z m-2937 -3
c0 -14 -4 -25 -9 -25 -4 0 -6 11 -3 25 2 14 6 25 8 25 2 0 4 -11 4 -25z m1880
0 c0 -14 -4 -25 -9 -25 -4 0 -6 11 -3 25 2 14 6 25 8 25 2 0 4 -11 4 -25z
m-2210 -40 c0 -30 -4 -55 -10 -55 -5 0 -10 25 -10 55 0 30 5 55 10 55 6 0 10
-25 10 -55z m3130 0 c0 -30 -4 -55 -10 -55 -5 0 -10 25 -10 55 0 30 5 55 10
55 6 0 10 -25 10 -55z m-3253 -2 c-3 -10 -5 -2 -5 17 0 19 2 27 5 18 2 -10 2
-26 0 -35z m73 -20 l0 -68 -20 33 c-11 17 -24 32 -30 32 -5 0 -10 16 -10 35 0
32 2 35 30 35 l30 0 0 -67z m140 2 l0 -65 -30 0 -30 0 0 65 0 65 30 0 30 0 0
-65z m17 -42 c-2 -21 -4 -4 -4 37 0 41 2 58 4 38 2 -21 2 -55 0 -75z m2900 10
c-2 -21 -4 -6 -4 32 0 39 2 55 4 38 2 -18 2 -50 0 -70z m73 32 l0 -65 -30 0
-30 0 0 65 0 65 30 0 30 0 0 -65z m140 1 c0 -63 0 -64 -30 -68 l-30 -5 0 69 0
68 30 0 30 0 0 -64z m17 -33 c-2 -21 -4 -6 -4 32 0 39 2 55 4 38 2 -18 2 -50
0 -70z m-3270 10 c-2 -16 -4 -3 -4 27 0 30 2 43 4 28 2 -16 2 -40 0 -55z
m3130 10 c-2 -16 -4 -5 -4 22 0 28 2 40 4 28 2 -13 2 -35 0 -50z m-3240 35
c-3 -8 -6 -5 -6 6 -1 11 2 17 5 13 3 -3 4 -12 1 -19z m3410 -40 c-2 -13 -4 -3
-4 22 0 25 2 35 4 23 2 -13 2 -33 0 -45z m-3097 -8 c0 -52 -2 -60 -19 -60 -23
0 -31 19 -31 76 0 40 2 44 25 44 24 0 25 -3 25 -60z m100 27 c0 -12 -5 -29
-10 -37 -7 -11 -10 -3 -10 28 0 26 4 41 10 37 6 -3 10 -16 10 -28z m140 18 c0
-10 -10 -15 -30 -15 -22 0 -28 4 -24 15 4 8 17 15 30 15 15 0 24 -6 24 -15z
m97 -47 c-3 -22 -4 -21 -11 4 -5 16 -5 36 0 45 7 16 8 15 11 -4 3 -13 3 -33 0
-45z m1642 29 c0 -12 -4 -31 -9 -42 -6 -15 -9 -8 -9 28 -1 30 3 46 9 42 6 -3
10 -16 9 -28z m141 18 c0 -10 -10 -15 -30 -15 -22 0 -28 4 -24 15 4 8 17 15
30 15 15 0 24 -6 24 -15z m70 -21 c0 -33 -25 -31 -43 4 -13 28 -13 28 15 24
22 -3 28 -10 28 -28z m27 -26 c-3 -22 -4 -21 -11 4 -5 16 -5 36 0 45 7 16 8
15 11 -4 3 -13 3 -33 0 -45z m522 45 c19 5 21 1 21 -50 0 -53 0 -54 -27 -51
-27 3 -28 6 -31 63 -1 39 1 55 7 46 5 -8 18 -12 30 -8z m79 -40 c-2 -46 -7
-59 -20 -61 -16 -3 -18 5 -18 57 0 55 2 61 20 61 19 0 21 -5 18 -57z m-3230
29 c2 -7 -3 -12 -12 -12 -9 0 -16 7 -16 16 0 17 22 14 28 -4z m572 12 c0 -3
-5 -14 -10 -25 -15 -28 -40 -24 -40 6 0 20 5 25 25 25 14 0 25 -3 25 -6z m150
-20 c0 -33 -33 -30 -38 4 -3 17 2 22 17 22 16 0 21 -6 21 -26z m1730 20 c0 -3
-5 -14 -10 -25 -15 -28 -40 -24 -40 6 0 20 5 25 25 25 14 0 25 -3 25 -6z
m1178 -12 c2 -7 -6 -12 -17 -12 -21 0 -27 11 -14 24 9 9 26 2 31 -12z m-2968
-24 c0 -11 -78 -10 -84 0 -3 5 15 8 39 8 25 -1 45 -4 45 -8z m1884 0 c-6 -10
-71 -11 -77 0 -3 4 15 7 39 8 24 0 41 -3 38 -8z m-2014 -28 c0 -5 -4 -10 -10
-10 -5 0 -10 5 -10 10 0 6 5 10 10 10 6 0 10 -4 10 -10z m200 0 c0 -5 -4 -10
-10 -10 -5 0 -10 5 -10 10 0 6 5 10 10 10 6 0 10 -4 10 -10z m1680 0 c0 -5 -4
-10 -10 -10 -5 0 -10 5 -10 10 0 6 5 10 10 10 6 0 10 -4 10 -10z m200 0 c0 -5
-4 -10 -10 -10 -5 0 -10 5 -10 10 0 6 5 10 10 10 6 0 10 -4 10 -10z m-2000
-15 c0 -8 5 -15 10 -15 6 0 10 7 10 15 0 10 10 15 31 15 26 0 30 -3 27 -22 -3
-21 -8 -23 -68 -23 -60 0 -65 2 -68 23 -3 19 1 22 27 22 21 0 31 -5 31 -15z
m1880 0 c0 -8 5 -15 10 -15 6 0 10 7 10 15 0 10 10 15 31 15 26 0 30 -3 27
-22 -3 -21 -8 -23 -68 -23 -60 0 -65 2 -68 23 -3 19 1 22 27 22 21 0 31 -5 31
-15z m1017 -7 c-3 -8 -6 -5 -6 6 -1 11 2 17 5 13 3 -3 4 -12 1 -19z m-886 -21
c-8 -8 -11 -7 -11 4 0 20 13 34 18 19 3 -7 -1 -17 -7 -23z m-2101 14 c0 -6 -4
-13 -10 -16 -5 -3 -10 1 -10 9 0 9 5 16 10 16 6 0 10 -4 10 -9z m191 -14 c-10
-9 -11 -8 -5 6 3 10 9 15 12 12 3 -3 0 -11 -7 -18z m39 14 c0 -6 -4 -13 -10
-16 -5 -3 -10 1 -10 9 0 9 5 16 10 16 6 0 10 -4 10 -9z m1650 0 c0 -6 -4 -13
-10 -16 -5 -3 -10 1 -10 9 0 9 5 16 10 16 6 0 10 -4 10 -9z m191 -14 c-10 -9
-11 -8 -5 6 3 10 9 15 12 12 3 -3 0 -11 -7 -18z m-2374 -11 c0 -8 -6 -12 -14
-9 -7 3 -13 9 -13 14 0 5 6 9 13 9 8 0 14 -6 14 -14z m3141 -4 c2 -7 -6 -12
-17 -12 -12 0 -21 6 -21 14 0 17 32 15 38 -2z m102 -57 l0 -75 -41 0 c-43 0
-45 14 -3 30 33 13 30 39 -10 83 l-34 37 44 0 44 0 0 -75z m30 -1 c0 -47 -4
-73 -10 -69 -5 3 -10 37 -10 76 0 39 4 69 10 69 6 0 10 -32 10 -76z m-3215 56
c4 -6 -5 -10 -20 -10 -15 0 -24 4 -20 10 3 6 12 10 20 10 8 0 17 -4 20 -10z
m158 3 c-13 -2 -33 -2 -45 0 -13 2 -3 4 22 4 25 0 35 -2 23 -4z m380 -13 c4
-16 0 -20 -19 -20 -17 0 -24 6 -24 20 0 13 7 20 19 20 10 0 21 -9 24 -20z m57
-55 c0 -43 -4 -75 -10 -75 -6 0 -10 32 -10 75 0 43 4 75 10 75 6 0 10 -32 10
-75z m2343 68 c-13 -2 -35 -2 -50 0 -16 2 -5 4 22 4 28 0 40 -2 28 -4z m-2893
-18 c0 -8 -4 -15 -10 -15 -5 0 -10 7 -10 15 0 8 5 15 10 15 6 0 10 -7 10 -15z
m313 8 c-7 -2 -19 -2 -25 0 -7 3 -2 5 12 5 14 0 19 -2 13 -5z m74 -25 c-3 -7
-5 -2 -5 12 0 14 2 19 5 13 2 -7 2 -19 0 -25z m43 -43 c0 -60 -3 -75 -15 -75
-10 0 -15 11 -15 35 0 24 -5 35 -15 35 -8 0 -15 7 -15 15 0 8 7 15 15 15 9 0
15 9 15 25 0 16 6 25 15 25 12 0 15 -15 15 -75z m1650 50 c0 -22 4 -25 40 -25
29 0 40 -4 40 -15 0 -11 -11 -15 -40 -15 -39 0 -40 -1 -40 -36 0 -24 -4 -34
-12 -32 -20 7 -22 148 -3 148 9 0 15 -10 15 -25z m17 -7 c-3 -7 -5 -2 -5 12 0
14 2 19 5 13 2 -7 2 -19 0 -25z m113 17 c15 -18 35 -20 24 -3 -4 7 -3 8 4 4
19 -11 14 -24 -10 -29 -14 -3 -9 -5 15 -6 33 -1 37 2 37 24 0 16 6 25 15 25
12 0 15 -15 15 -75 0 -60 -3 -75 -15 -75 -10 0 -15 11 -15 35 0 34 -1 35 -40
35 -33 0 -40 3 -40 20 0 17 -7 20 -45 20 -25 0 -45 4 -45 9 0 5 9 7 20 4 12
-3 22 1 26 11 8 20 38 21 54 1z m57 -17 c-3 -7 -5 -2 -5 12 0 14 2 19 5 13 2
-7 2 -19 0 -25z m693 22 c0 -5 -7 -10 -15 -10 -8 0 -15 5 -15 10 0 6 7 10 15
10 8 0 15 -4 15 -10z m30 0 c0 -5 -4 -10 -10 -10 -5 0 -10 5 -10 10 0 6 5 10
10 10 6 0 10 -4 10 -10z m197 -22 c-3 -7 -5 -2 -5 12 0 14 2 19 5 13 2 -7 2
-19 0 -25z m-1515 15 c-206 -2 -539 -2 -740 0 -202 1 -34 2 373 2 407 0 572
-1 367 -2z m1096 0 c-82 -2 -214 -2 -295 0 -82 1 -15 3 147 3 162 0 229 -2
148 -3z m-2864 -19 c9 -22 7 -54 -2 -54 -4 0 -8 8 -8 18 -1 9 -4 25 -9 35 -4
10 -3 17 3 17 5 0 13 -7 16 -16z m49 -11 c6 -32 1 -43 -19 -43 -9 0 -14 11
-14 35 0 43 25 48 33 8z m397 -18 l0 -45 -100 0 c-82 0 -100 -3 -100 -15 0
-10 -10 -15 -30 -15 -29 0 -30 -2 -30 -45 0 -33 -4 -45 -15 -45 -12 0 -15 18
-15 105 l0 105 145 0 145 0 0 -45z m2690 10 c0 -28 -4 -35 -20 -35 -16 0 -20
7 -20 35 0 28 4 35 20 35 16 0 20 -7 20 -35z m32 23 c-5 -7 -12 -24 -15 -38
-3 -18 -5 -15 -6 13 -1 28 3 37 15 37 12 0 14 -3 6 -12z m-3075 -60 c-2 -13
-4 -5 -4 17 -1 22 1 32 4 23 2 -10 2 -28 0 -40z m43 22 c0 -20 -5 -30 -15 -30
-10 0 -15 10 -15 30 0 20 5 30 15 30 10 0 15 -10 15 -30z m478 3 c-2 -23 -8
-29 -35 -31 -31 -3 -33 -1 -33 27 0 29 3 31 36 31 33 0 35 -2 32 -27z m78 5
c-1 -14 6 -24 17 -26 22 -4 35 27 16 39 -9 5 12 9 57 9 71 0 71 0 66 -25 -3
-20 0 -25 16 -25 27 0 37 17 22 35 -11 13 -2 15 60 15 62 0 71 -2 60 -15 -15
-18 -5 -35 22 -35 16 0 19 5 16 25 -5 24 -4 25 57 25 57 0 62 -2 61 -22 -1
-17 5 -23 19 -23 14 0 20 6 19 23 -1 20 4 22 61 22 61 0 62 -1 57 -25 -3 -20
0 -25 16 -25 27 0 37 17 22 35 -11 13 -2 15 60 15 62 0 71 -2 60 -15 -15 -18
-5 -35 22 -35 16 0 19 5 16 25 -5 24 -4 25 57 25 57 0 62 -2 61 -22 -1 -14 6
-24 17 -26 22 -4 35 27 16 39 -9 5 12 9 57 9 71 0 71 0 66 -25 -3 -20 0 -25
16 -25 27 0 37 17 22 35 -11 13 -2 15 60 15 62 0 71 -2 60 -15 -15 -18 -5 -35
22 -35 16 0 19 5 16 25 -5 25 -5 25 66 24 39 0 65 -3 59 -6 -21 -8 -15 -33 10
-43 13 -5 -265 -9 -715 -9 l-738 -1 0 30 c0 18 5 30 13 30 8 0 13 -10 13 -22z
m1880 0 c-1 -14 6 -24 17 -26 22 -4 35 27 16 39 -9 5 12 9 57 9 71 0 71 0 66
-25 -3 -20 0 -25 16 -25 27 0 37 17 22 35 -11 13 -2 15 60 15 62 0 71 -2 60
-15 -15 -18 -5 -35 22 -35 16 0 19 5 16 25 -5 25 -5 25 66 25 45 0 66 -4 57
-9 -21 -13 -5 -44 19 -38 11 3 20 1 20 -4 0 -5 -141 -8 -337 -8 -186 1 -327 4
-314 6 18 4 22 10 18 29 -4 23 -2 24 58 24 57 0 62 -2 61 -22z m-2089 -75 c-3
-10 -5 -2 -5 17 0 19 2 27 5 18 2 -10 2 -26 0 -35z m1710 0 c-3 -10 -5 -2 -5
17 0 19 2 27 5 18 2 -10 2 -26 0 -35z m153 37 c0 -5 -9 -10 -20 -10 -13 0 -20
-7 -20 -20 0 -15 -7 -20 -29 -20 -21 0 -28 5 -27 18 1 12 -6 17 -21 16 -13 0
-23 5 -23 13 0 9 18 13 70 13 40 0 70 -4 70 -10z m17 -37 c-3 -10 -5 -2 -5 17
0 19 2 27 5 18 2 -10 2 -26 0 -35z m920 15 c-3 -7 -5 -2 -5 12 0 14 2 19 5 13
2 -7 2 -19 0 -25z m-3293 7 c-7 -16 -24 -21 -24 -6 0 8 7 13 27 20 1 1 0 -6
-3 -14z m60 0 c-4 -8 -10 -15 -14 -15 -4 0 -13 7 -20 15 -11 13 -8 15 13 15
19 0 25 -4 21 -15z m3084 3 c-7 -19 -38 -22 -38 -4 0 10 9 16 21 16 12 0 19
-5 17 -12z m-2998 -8 c0 -5 -4 -10 -9 -10 -6 0 -13 5 -16 10 -3 6 1 10 9 10 9
0 16 -4 16 -10z m454 -5 c-4 -8 -15 -15 -25 -15 -10 0 -19 7 -19 15 0 9 9 15
25 15 18 0 23 -4 19 -15z m1546 5 c0 -7 -252 -11 -732 -12 -403 -1 -658 -4
-565 -5 l167 -3 0 -26 0 -25 -232 3 c-169 2 -232 6 -235 15 -3 8 15 13 59 15
57 3 63 5 66 26 l3 22 735 0 c483 0 734 -3 734 -10z m945 0 c-3 -5 -35 -10
-71 -10 -47 0 -64 -4 -64 -14 0 -9 -8 -12 -25 -8 -20 3 -25 0 -25 -17 0 -26
28 -40 41 -20 6 10 9 6 9 -13 0 -24 -4 -28 -30 -28 -29 0 -30 2 -30 44 0 41 2
45 28 49 25 4 25 4 -5 6 l-33 1 0 -51 c0 -47 -2 -50 -22 -47 -19 2 -24 10 -26
45 -3 37 0 42 20 46 13 2 -77 5 -199 6 -136 0 -224 5 -228 11 -4 7 108 10 330
10 222 0 334 -3 330 -10z m-2985 -41 c0 -16 -4 -29 -10 -29 -5 0 -10 16 -10
36 0 21 4 33 10 29 6 -3 10 -19 10 -36z m-30 -15 c0 -31 3 -34 30 -34 17 0 30
-4 30 -10 0 -6 -33 -10 -80 -10 l-80 0 0 44 c0 49 8 54 68 48 29 -4 32 -7 32
-38z m230 36 c0 -5 -7 -10 -16 -10 -8 0 -12 5 -9 10 3 6 10 10 16 10 5 0 9 -4
9 -10z m125 0 c4 -6 -5 -10 -19 -10 -14 0 -26 5 -26 10 0 6 9 10 19 10 11 0
23 -4 26 -10z m635 -25 c0 -18 -5 -25 -20 -25 -15 0 -20 7 -20 25 0 18 5 25
20 25 15 0 20 -7 20 -25z m80 0 c0 -21 -5 -25 -30 -25 -25 0 -30 4 -30 25 0
21 5 25 30 25 25 0 30 -4 30 -25z m60 -9 c0 -33 -1 -34 -25 -23 -35 17 -35 57
0 57 22 0 25 -4 25 -34z m40 -11 c0 -33 -4 -45 -15 -45 -11 0 -15 12 -15 45 0
33 4 45 15 45 11 0 15 -12 15 -45z m50 0 c0 -38 -3 -45 -20 -45 -17 0 -20 7
-20 45 0 38 3 45 20 45 17 0 20 -7 20 -45z m560 0 l0 -45 -270 0 -270 0 0 45
0 45 270 0 270 0 0 -45z m58 3 c-2 -36 -7 -44 -25 -46 -21 -3 -23 1 -23 42 0
43 2 46 26 46 23 0 25 -3 22 -42z m42 -3 c0 -33 -4 -45 -15 -45 -11 0 -15 12
-15 45 0 33 4 45 15 45 11 0 15 -12 15 -45z m50 0 c0 -38 -3 -45 -20 -45 -17
0 -20 7 -20 45 0 38 3 45 20 45 17 0 20 -7 20 -45z m80 0 c0 -43 -1 -45 -30
-45 -29 0 -30 2 -30 45 0 43 1 45 30 45 29 0 30 -2 30 -45z m58 23 c-4 -33
-48 -34 -48 -2 0 19 5 24 26 24 21 0 25 -4 22 -22z m682 -23 l0 -45 -98 0
c-86 0 -99 2 -110 20 -10 16 -23 20 -67 20 -48 0 -55 3 -55 19 0 15 -8 21 -32
24 -18 2 56 5 165 5 l197 2 0 -45z m190 0 c0 -38 -3 -45 -20 -45 -17 0 -20 7
-20 45 0 38 3 45 20 45 17 0 20 -7 20 -45z m220 0 l0 -45 -105 0 -105 0 0 45
0 45 105 0 105 0 0 -45z m302 0 l-4 -46 -67 3 c-48 2 -66 7 -66 17 0 19 -41
45 -50 32 -3 -6 -2 -11 4 -11 6 0 15 -9 21 -20 9 -16 8 -18 -5 -14 -8 3 -12
11 -9 18 3 6 -1 3 -9 -6 -9 -12 -28 -18 -56 -18 -40 0 -41 1 -41 35 l0 35 90
-1 c50 -1 90 -3 90 -6 0 -2 -7 -16 -16 -31 l-16 -27 21 25 c11 14 21 28 21 33
0 4 19 8 43 9 23 1 -21 5 -98 8 l-140 6 145 2 145 2 -3 -45z m-3403 13 c-5
-10 -12 -18 -14 -18 -3 0 -5 8 -5 18 0 10 7 19 14 19 11 0 13 -5 5 -19z m401
2 c0 -7 -57 -10 -160 -9 -90 0 -160 5 -160 10 0 5 69 9 160 9 102 0 160 -4
160 -10z m1880 0 c0 -6 -50 -10 -130 -10 -80 0 -130 4 -130 10 0 6 50 10 130
10 80 0 130 -4 130 -10z m65 0 c-3 -5 -17 -10 -31 -10 -13 0 -24 5 -24 10 0 6
14 10 31 10 17 0 28 -4 24 -10z m-2204 -31 c-25 -5 -48 -14 -53 -21 -5 -9 -8
-7 -8 7 0 18 7 21 53 22 l52 1 -44 -9z m184 1 c4 -6 -10 -10 -34 -10 -23 0
-41 5 -41 10 0 6 15 10 34 10 19 0 38 -4 41 -10z m65 -11 c0 -25 -33 -22 -38
4 -2 12 3 17 17 17 15 0 21 -6 21 -21z m1680 1 c0 -13 -7 -20 -20 -20 -13 0
-20 7 -20 20 0 13 7 20 20 20 13 0 20 -7 20 -20z m160 10 c0 -5 -5 -10 -11
-10 -5 0 -7 5 -4 10 3 6 8 10 11 10 2 0 4 -4 4 -10z m58 3 c-10 -2 -26 -2 -35
0 -10 3 -2 5 17 5 19 0 27 -2 18 -5z m52 -3 c0 -5 -7 -10 -16 -10 -8 0 -12 5
-9 10 3 6 10 10 16 10 5 0 9 -4 9 -10z m-1820 -15 c11 -13 7 -15 -24 -15 -25
0 -36 4 -36 15 0 9 9 15 24 15 13 0 29 -7 36 -15z m30 5 c0 -5 -2 -10 -4 -10
-3 0 -8 5 -11 10 -3 6 -1 10 4 10 6 0 11 -4 11 -10z m500 -5 c11 -13 -17 -15
-239 -15 -216 0 -251 2 -251 15 0 13 33 15 239 15 200 0 241 -2 251 -15z m955
-8 c15 -4 14 -5 -7 -6 -21 -1 -28 4 -28 17 0 11 3 13 8 6 4 -7 16 -14 27 -17z
m148 16 c-13 -2 -33 -2 -45 0 -13 2 -3 4 22 4 25 0 35 -2 23 -4z m244 -15 c-3
-8 -6 -5 -6 6 -1 11 2 17 5 13 3 -3 4 -12 1 -19z m53 7 c11 -13 8 -15 -14 -15
-16 0 -26 5 -26 15 0 8 6 15 14 15 7 0 19 -7 26 -15z m-2270 -5 c0 -5 -6 -10
-14 -10 -8 0 -18 5 -21 10 -3 6 3 10 14 10 12 0 21 -4 21 -10z m2095 0 c-3 -5
-13 -10 -21 -10 -8 0 -14 5 -14 10 0 6 9 10 21 10 11 0 17 -4 14 -10z m-1967
-7 c-10 -2 -28 -2 -40 0 -13 2 -5 4 17 4 22 1 32 -1 23 -4z m135 0 c-7 -2 -19
-2 -25 0 -7 3 -2 5 12 5 14 0 19 -2 13 -5z m1710 0 c-13 -2 -33 -2 -45 0 -13
2 -3 4 22 4 25 0 35 -2 23 -4z m-2950 -20 c-23 -2 -64 -2 -90 0 -26 2 -7 3 42
3 50 0 71 -1 48 -3z m77 -78 c0 -75 -2 -85 -17 -84 -11 0 -13 3 -5 6 8 3 12
29 12 78 0 49 -4 75 -12 78 -8 3 -6 6 5 6 15 1 17 -9 17 -84z m4130 55 l0 -30
-1785 0 -1785 0 0 30 0 30 1785 0 1785 0 0 -30z m40 20 c0 -5 -5 -10 -11 -10
-5 0 -7 5 -4 10 3 6 8 10 11 10 2 0 4 -4 4 -10z m145 0 c3 -5 1 -10 -4 -10 -6
0 -11 5 -11 10 0 6 2 10 4 10 3 0 8 -4 11 -10z m-55 -10 c0 -13 -40 -13 -60 0
-11 7 -5 10 23 10 20 0 37 -4 37 -10z m-4283 -12 c-2 -8 -23 -13 -54 -13 -53
0 -83 -16 -83 -46 0 -22 31 -33 89 -34 26 0 46 -5 48 -12 4 -10 -19 -13 -91
-13 l-96 0 0 65 0 65 96 0 c72 0 95 -3 91 -12z m4208 -30 c9 -42 -9 -113 -27
-102 -5 3 -1 12 9 20 10 7 13 14 6 14 -16 0 -25 33 -17 64 8 32 22 34 29 4z
m83 -25 c3 -32 2 -33 -32 -33 -35 0 -36 1 -36 36 0 34 1 35 33 32 28 -3 32 -7
35 -35z m-4298 2 c0 -16 -6 -25 -15 -25 -9 0 -15 9 -15 25 0 16 6 25 15 25 9
0 15 -9 15 -25z m3273 8 c-490 -2 -1296 -2 -1790 0 -494 1 -92 2 892 2 985 0
1389 -1 898 -2z m1044 -15 c-3 -8 -6 -5 -6 6 -1 11 2 17 5 13 3 -3 4 -12 1
-19z m-157 -8 c0 -7 -602 -10 -1785 -10 -1183 0 -1785 3 -1785 10 0 7 602 10
1785 10 1183 0 1785 -3 1785 -10z m0 -45 l0 -25 -1550 -1 c-852 -1 -1557 -1
-1565 -1 -8 0 -114 0 -235 1 l-220 1 0 25 0 25 1785 0 1785 0 0 -25z m117 -11
c-3 -3 -12 -4 -19 -1 -8 3 -5 6 6 6 11 1 17 -2 13 -5z m73 2 c0 -3 -4 -8 -10
-11 -5 -3 -10 -1 -10 4 0 6 5 11 10 11 6 0 10 -2 10 -4z m-4397 -13 c-23 -2
-64 -2 -90 0 -26 2 -7 3 42 3 50 0 71 -1 48 -3z m635 -28 c3 -3 -119 -5 -271
-5 -153 0 -277 3 -277 8 0 8 540 6 548 -3z m339 -17 c-3 -7 -5 -2 -5 12 0 14
2 19 5 13 2 -7 2 -19 0 -25z m53 -14 c0 -27 -4 -34 -20 -34 -17 0 -20 7 -20
39 0 34 3 38 20 34 15 -4 20 -14 20 -39z m200 9 c0 -13 -7 -31 -15 -39 -13
-14 -15 -10 -15 30 0 36 3 44 15 40 8 -4 15 -17 15 -31z m70 -23 c0 -58 -1
-60 -21 -50 -20 11 -20 12 -2 26 17 13 17 15 1 28 -10 7 -18 20 -18 29 0 8 8
18 18 20 9 3 18 5 20 6 1 0 2 -26 2 -59z m1458 -11 c-3 -32 0 -39 14 -39 10 0
18 5 18 10 0 6 5 10 11 10 5 0 7 -4 4 -10 -4 -6 13 -10 44 -10 27 0 53 -4 56
-10 3 -5 26 -10 51 -10 37 0 44 3 44 20 0 19 7 20 90 20 l90 0 0 -825 0 -825
-912 0 -912 0 -23 22 -23 21 0 844 0 843 723 2 c602 3 723 1 725 -11 2 -7 2
-31 0 -52z m272 31 c0 -47 -25 -56 -36 -13 -5 19 -2 30 11 40 25 18 25 18 25
-27z m80 -6 c0 -27 -4 -34 -20 -34 -17 0 -20 7 -20 39 0 34 3 38 20 34 15 -4
20 -14 20 -39z m30 6 c0 -22 -4 -40 -10 -40 -5 0 -10 18 -10 40 0 22 5 40 10
40 6 0 10 -18 10 -40z m412 -1288 l3 -1132 -27 0 -28 0 0 1224 0 1225 22 3
c22 3 23 0 25 -92 2 -52 4 -605 5 -1228z m68 1296 c0 -23 -3 -29 -9 -19 -12
19 -43 6 -39 -16 2 -11 12 -18 26 -17 20 1 22 -4 22 -61 0 -61 -1 -62 -25 -57
-20 3 -25 0 -25 -16 0 -27 17 -37 35 -22 13 11 15 2 15 -60 0 -62 -2 -71 -15
-60 -18 15 -35 5 -35 -22 0 -16 5 -19 25 -16 25 5 25 5 25 -66 0 -45 -4 -66
-9 -57 -12 19 -43 6 -39 -16 2 -11 12 -18 26 -17 20 1 22 -4 22 -61 0 -61 -1
-62 -25 -57 -20 3 -25 0 -25 -16 0 -27 17 -37 35 -22 13 11 15 2 15 -60 0 -62
-2 -71 -15 -60 -18 15 -35 5 -35 -22 0 -16 5 -19 25 -16 25 5 25 5 25 -66 0
-45 -4 -66 -9 -57 -12 19 -43 6 -39 -16 2 -11 12 -18 26 -17 20 1 22 -4 22
-61 0 -61 -1 -62 -25 -57 -20 3 -25 0 -25 -17 0 -26 28 -40 41 -20 5 9 9 -13
9 -60 0 -63 -2 -72 -15 -61 -18 15 -35 5 -35 -22 0 -16 5 -19 25 -16 25 5 25
5 25 -66 0 -45 -4 -66 -9 -57 -12 19 -43 6 -39 -16 2 -11 12 -18 26 -17 20 1
22 -4 22 -61 0 -61 -1 -62 -25 -57 -20 3 -25 0 -25 -17 0 -26 28 -40 41 -20 5
9 9 -13 9 -60 0 -63 -2 -72 -15 -61 -18 15 -35 5 -35 -22 0 -16 5 -19 25 -16
25 5 25 5 25 -66 0 -45 -4 -66 -9 -57 -12 19 -43 6 -39 -16 2 -11 12 -18 26
-17 20 1 22 -4 22 -61 0 -61 -1 -62 -25 -57 -20 3 -25 0 -25 -17 0 -26 28 -40
41 -20 5 9 9 -13 9 -60 0 -56 -3 -72 -11 -64 -16 16 -39 5 -39 -19 0 -16 5
-19 25 -16 22 5 25 2 25 -23 0 -26 -4 -29 -30 -29 l-30 0 0 1159 0 1160 28 4
c15 2 28 5 30 6 1 0 2 -14 2 -31z m-2750 -13 c0 -31 -3 -35 -27 -36 -24 -2
-25 -2 -5 -6 l22 -4 0 -1093 c0 -601 3 -1134 6 -1184 l7 -92 -31 0 -32 0 0
1170 c0 644 3 1195 6 1225 6 49 9 55 30 55 21 0 24 -5 24 -35z m34 10 c7 -27
1 -45 -15 -45 -5 0 -9 16 -9 35 0 41 15 47 24 10z m56 -10 c0 -28 -4 -35 -20
-35 -16 0 -20 7 -20 35 0 28 4 35 20 35 16 0 20 -7 20 -35z m117 3 c-2 -22 -8
-34 -20 -36 -13 -3 -17 4 -17 32 0 29 4 36 20 36 16 0 19 -6 17 -32z m29 -36
c-11 -10 -14 3 -7 38 l6 35 3 -33 c2 -19 1 -36 -2 -40z m34 33 c0 -19 -4 -35
-10 -35 -5 0 -10 16 -10 35 0 19 5 35 10 35 6 0 10 -16 10 -35z m107 -42 c-2
-16 -4 -3 -4 27 0 30 2 43 4 28 2 -16 2 -40 0 -55z m1581 45 c3 -24 0 -28 -22
-28 -15 0 -26 -7 -29 -17 -3 -10 -5 4 -6 30 -1 47 0 48 27 45 21 -2 28 -9 30
-30z m72 -3 c0 -19 -4 -35 -10 -35 -5 0 -10 16 -10 35 0 19 5 35 10 35 6 0 10
-16 10 -35z m23 -2 c4 -19 2 -33 -3 -33 -6 0 -10 17 -10 37 0 43 5 41 13 -4z
m57 2 c0 -39 -14 -46 -30 -16 -16 31 -12 51 10 51 16 0 20 -7 20 -35z m80 20
c0 -8 -4 -15 -10 -15 -5 0 -10 7 -10 15 0 8 5 15 10 15 6 0 10 -7 10 -15z
m140 -20 c0 -31 -3 -35 -25 -35 -22 0 -25 4 -25 35 0 31 3 35 25 35 22 0 25
-4 25 -35z m80 -50 c0 -83 -1 -86 -35 -124 l-35 -38 0 -275 0 -274 35 -34 35
-34 0 -413 0 -413 -45 0 -45 0 0 805 c0 530 3 805 10 805 6 0 10 18 10 40 0
39 1 40 35 40 l35 0 0 -85z m400 -1141 l0 -1225 -27 3 c-27 3 -28 6 -31 61 -2
35 1 57 8 57 7 0 10 358 10 1165 0 1158 0 1165 20 1165 20 0 20 -7 20 -1226z
m588 1219 c-75 -2 -201 -2 -280 0 -79 1 -17 3 137 3 154 0 218 -2 143 -3z
m-4600 -15 c-3 -8 -26 -14 -56 -16 -42 -2 -52 0 -52 12 0 13 12 16 56 16 40 0
55 -4 52 -12z m720 -10 c-7 -20 -48 -23 -48 -4 0 11 9 16 26 16 16 0 24 -5 22
-12z m190 0 c-7 -20 -48 -23 -48 -4 0 11 9 16 26 16 16 0 24 -5 22 -12z m3380
0 c-7 -20 -48 -23 -48 -4 0 11 9 16 26 16 16 0 24 -5 22 -12z m190 0 c-7 -20
-48 -23 -48 -4 0 11 9 16 26 16 16 0 24 -5 22 -12z m190 0 c-7 -20 -48 -23
-48 -4 0 11 9 16 26 16 16 0 24 -5 22 -12z m-3168 -73 c0 -43 -4 -75 -10 -75
-6 0 -10 31 -9 75 1 41 5 75 10 75 5 0 9 -34 9 -75z m1694 63 c-3 -4 -9 -8
-15 -8 -5 0 -9 4 -9 8 0 5 7 9 15 9 8 0 12 -4 9 -9z m-1887 -20 c-3 -8 -6 -5
-6 6 -1 11 2 17 5 13 3 -3 4 -12 1 -19z m2083 8 c0 -3 -4 -8 -10 -11 -5 -3
-10 -1 -10 4 0 6 5 11 10 11 6 0 10 -2 10 -4z m-2130 -85 c0 -57 -1 -58 -25
-53 -20 3 -25 0 -25 -16 0 -27 17 -37 35 -22 13 11 15 2 15 -60 0 -62 -2 -71
-15 -60 -18 15 -35 5 -35 -22 0 -16 5 -19 25 -16 25 5 25 5 25 -66 0 -45 -4
-66 -9 -57 -11 17 -41 7 -41 -14 0 -21 30 -31 41 -14 5 9 9 -12 9 -57 0 -71 0
-71 -25 -66 -20 3 -25 0 -25 -16 0 -27 17 -37 35 -22 13 11 15 2 15 -60 0 -62
-2 -71 -15 -60 -18 15 -35 5 -35 -22 0 -16 5 -19 25 -16 25 5 25 5 25 -66 0
-45 -4 -66 -9 -57 -11 17 -41 7 -41 -14 0 -21 30 -31 41 -14 5 9 9 -12 9 -57
0 -71 0 -71 -25 -66 -20 3 -25 0 -25 -16 0 -27 17 -37 35 -22 13 11 15 2 15
-60 0 -62 -2 -71 -15 -60 -18 15 -35 5 -35 -22 0 -16 5 -19 25 -16 25 5 25 5
25 -66 0 -45 -4 -66 -9 -57 -11 17 -41 7 -41 -14 0 -21 30 -31 41 -14 5 9 9
-12 9 -57 0 -71 0 -71 -25 -66 -20 3 -25 0 -25 -16 0 -27 17 -37 35 -22 13 11
15 2 15 -60 0 -62 -2 -71 -15 -60 -18 15 -35 5 -35 -22 0 -16 5 -19 25 -16 25
5 25 5 25 -66 0 -45 -4 -66 -9 -57 -11 17 -41 7 -41 -14 0 -21 30 -31 41 -14
5 9 9 -12 9 -57 0 -71 0 -71 -25 -66 -20 3 -25 0 -25 -16 0 -27 17 -37 35 -22
13 11 15 2 15 -60 0 -62 -2 -71 -15 -60 -18 15 -35 5 -35 -22 0 -16 5 -19 25
-16 22 5 25 2 25 -23 0 -26 -4 -29 -30 -29 l-30 0 0 1120 0 1120 30 0 c30 0
30 0 30 -59z m60 -1126 l0 -1185 -30 0 -30 0 0 60 c0 33 4 60 10 60 7 0 10
382 10 1125 0 1118 0 1125 20 1125 20 0 20 -7 20 -1185z m103 1168 c-13 -2
-33 -2 -45 0 -13 2 -3 4 22 4 25 0 35 -2 23 -4z m1880 0 c-13 -2 -33 -2 -45 0
-13 2 -3 4 22 4 25 0 35 -2 23 -4z m-1726 -60 c-3 -10 -5 -2 -5 17 0 19 2 27
5 18 2 -10 2 -26 0 -35z m53 -332 l0 -289 -37 13 -38 13 -3 265 c-2 249 -1
265 15 261 10 -3 27 2 38 10 11 9 21 16 23 16 1 0 2 -130 2 -289z m0 -796 l0
-405 -40 0 -40 0 2 391 3 391 35 13 c19 7 36 13 38 14 1 0 2 -181 2 -404z m24
-434 c45 -50 -8 -127 -68 -99 -28 12 -35 32 -34 83 1 29 4 31 43 33 30 1 47
-4 59 -17z m1893 13 c-3 -3 -12 -4 -19 -1 -8 3 -5 6 6 6 11 1 17 -2 13 -5z
m57 -10 c10 -25 7 -30 -14 -30 -14 0 -20 7 -20 23 0 26 25 31 34 7z m-1394
-69 l-44 -45 -238 0 -238 0 0 45 0 45 282 0 282 0 -44 -45z m1260 0 l0 -45
-45 0 c-45 0 -45 0 -45 35 0 33 -2 35 -35 35 -33 0 -35 -2 -35 -35 l0 -35 -53
0 c-49 0 -56 3 -97 45 l-44 45 177 0 177 0 0 -45z m17 23 c-3 -8 -6 -5 -6 6
-1 11 2 17 5 13 3 -3 4 -12 1 -19z m-1147 3 c0 -6 -4 -13 -10 -16 -5 -3 -10 1
-10 9 0 9 5 16 10 16 6 0 10 -4 10 -9z m487 -13 c-3 -8 -6 -5 -6 6 -1 11 2 17
5 13 3 -3 4 -12 1 -19z m-517 2 c0 -5 -16 -10 -36 -10 -21 0 -33 4 -29 10 3 6
19 10 36 10 16 0 29 -4 29 -10z m815 0 c4 -6 -43 -10 -134 -10 -82 0 -142 4
-146 10 -4 6 43 10 134 10 82 0 142 -4 146 -10z m245 -30 c0 -25 -4 -30 -25
-30 -21 0 -25 5 -25 30 0 25 4 30 25 30 21 0 25 -5 25 -30z m233 1 c-3 -11
-12 -22 -20 -26 -19 -7 -18 -7 -27 23 -7 19 -4 22 22 22 25 0 29 -3 25 -19z
m-77 -11 c0 -26 -39 -24 -44 3 -3 12 3 17 20 17 17 0 24 -6 24 -20z m-163 -37
c-7 -2 -21 -2 -30 0 -10 3 -4 5 12 5 17 0 24 -2 18 -5z m-2233 -418 c0 -30 -4
-55 -10 -55 -5 0 -10 25 -10 55 0 30 5 55 10 55 6 0 10 -25 10 -55z m258 -2
l3 -53 -30 0 c-31 0 -31 0 -31 56 0 54 0 55 28 52 25 -3 27 -7 30 -55z m2432
2 c0 -52 -1 -55 -25 -55 -24 0 -25 3 -25 55 0 52 1 55 25 55 24 0 25 -3 25
-55z m220 0 c0 -30 -4 -55 -10 -55 -5 0 -10 25 -10 55 0 30 5 55 10 55 6 0 10
-25 10 -55z m-2633 -22 c-2 -16 -4 -5 -4 22 0 28 2 40 4 28 2 -13 2 -35 0 -50z
m2350 0 c-2 -16 -4 -5 -4 22 0 28 2 40 4 28 2 -13 2 -35 0 -50z m-2627 -53 c0
-5 -4 -10 -10 -10 -5 0 -10 5 -10 10 0 6 5 10 10 10 6 0 10 -4 10 -10z m87
-82 c-2 -18 -4 -4 -4 32 0 36 2 50 4 33 2 -18 2 -48 0 -65z m30 0 c-2 -18 -4
-4 -4 32 0 36 2 50 4 33 2 -18 2 -48 0 -65z m172 88 c-10 -8 -89 -13 -89 -5 0
5 21 9 47 9 25 0 44 -2 42 -4z m2401 -4 c0 -4 -18 -6 -40 -4 -22 2 -40 6 -40
8 0 2 18 4 40 4 22 0 40 -3 40 -8z m87 -84 c-2 -18 -4 -4 -4 32 0 36 2 50 4
33 2 -18 2 -48 0 -65z m30 0 c-2 -18 -4 -4 -4 32 0 36 2 50 4 33 2 -18 2 -48
0 -65z m103 82 c0 -5 -4 -10 -10 -10 -5 0 -10 5 -10 10 0 6 5 10 10 10 6 0 10
-4 10 -10z m-2593 -35 c6 -14 7 -23 2 -19 -5 3 -9 -20 -9 -50 0 -51 -2 -56
-25 -62 -48 -12 -55 -1 -55 81 l0 75 38 0 c30 0 39 -5 49 -25z m2351 -52 l-3
-78 -35 0 -35 0 -3 78 -3 77 41 0 41 0 -3 -77z m-2698 37 c0 -20 -5 -30 -15
-30 -10 0 -15 10 -15 30 0 20 5 30 15 30 10 0 15 -10 15 -30z m30 16 c0 -8 -4
-18 -10 -21 -5 -3 -10 3 -10 14 0 12 5 21 10 21 6 0 10 -6 10 -14z m220 -1 c0
-8 -4 -15 -10 -15 -5 0 -10 7 -10 15 0 8 5 15 10 15 6 0 10 -7 10 -15z m2467
-7 c-3 -8 -6 -5 -6 6 -1 11 2 17 5 13 3 -3 4 -12 1 -19z m223 1 c0 -11 -4 -17
-10 -14 -5 3 -10 13 -10 21 0 8 5 14 10 14 6 0 10 -9 10 -21z m38 -15 c-5 -28
-28 -29 -28 -1 0 13 3 27 7 31 10 10 25 -10 21 -30z m-2728 -54 l0 -50 -110 0
c-103 0 -110 1 -110 20 0 19 7 20 100 20 l100 0 0 30 c0 17 5 30 10 30 6 0 10
-22 10 -50z m2571 -10 c92 0 99 -1 99 -20 0 -19 -7 -20 -105 -20 l-105 0 2 53
c1 35 2 42 5 20 l4 -33 100 0z m-2464 -27 c-2 -16 -4 -5 -4 22 0 28 2 40 4 28
2 -13 2 -35 0 -50z m2580 5 c-2 -13 -4 -3 -4 22 0 25 2 35 4 23 2 -13 2 -33 0
-45z m-2801 -28 l114 0 0 -40 0 -40 -109 0 c-124 0 -118 -4 -124 93 -3 34 -2
45 0 25 l4 -38 115 0z m2794 -32 c0 -18 2 -42 4 -53 2 -11 1 -14 -1 -7 -3 8
-35 12 -114 12 l-109 0 0 40 0 40 110 0 110 0 0 -32z m-2540 -8 c0 -11 -4 -20
-10 -20 -5 0 -10 9 -10 20 0 11 5 20 10 20 6 0 10 -9 10 -20z m2190 0 c0 -11
-4 -20 -10 -20 -5 0 -10 9 -10 20 0 11 5 20 10 20 6 0 10 -9 10 -20z m-2260 0
c0 -5 -11 -10 -25 -10 -14 0 -25 5 -25 10 0 6 11 10 25 10 14 0 25 -4 25 -10z
m2370 0 c0 -5 -13 -10 -30 -10 -16 0 -30 5 -30 10 0 6 14 10 30 10 17 0 30 -4
30 -10z m-2660 -61 c0 -5 -4 -9 -10 -9 -5 0 -10 7 -10 16 0 8 5 12 10 9 6 -3
10 -10 10 -16z m327 -1 c-3 -8 -6 -5 -6 6 -1 11 2 17 5 13 3 -3 4 -12 1 -19z
m2250 0 c-3 -8 -6 -5 -6 6 -1 11 2 17 5 13 3 -3 4 -12 1 -19z m-2272 2 c4 -6
-47 -10 -144 -10 -94 0 -151 4 -151 10 0 6 55 10 144 10 86 0 147 -4 151 -10z
m2585 0 c0 -6 -57 -10 -150 -10 -93 0 -150 4 -150 10 0 6 57 10 150 10 93 0
150 -4 150 -10z"/>
<path d="M744 3595 c-8 -19 3 -35 26 -35 19 0 30 17 23 38 -6 17 -42 15 -49
-3z"/>
<path d="M1046 3601 c-10 -16 5 -41 24 -41 19 0 30 17 23 38 -5 14 -39 16 -47
3z"/>
<path d="M800 3473 l0 -83 120 0 121 0 -3 78 -3 77 -118 5 -117 5 0 -82z m214
61 c9 -3 16 -12 16 -20 0 -11 -23 -14 -110 -14 -85 0 -110 3 -110 13 0 8 3 17
7 20 8 9 176 9 197 1z m-154 -59 c0 -8 -5 -15 -11 -15 -6 0 -17 7 -25 15 -14
13 -13 15 10 15 16 0 26 -6 26 -15z m150 0 c-7 -8 -16 -15 -21 -15 -5 0 -9 7
-9 15 0 9 9 15 21 15 18 0 19 -2 9 -15z m-45 -5 c4 -6 -13 -10 -44 -10 -28 0
-51 5 -51 10 0 6 20 10 44 10 25 0 48 -4 51 -10z m-148 -57 c-3 -10 -5 -2 -5
17 0 19 2 27 5 18 2 -10 2 -26 0 -35z m213 17 c0 -16 -4 -30 -9 -30 -5 0 -9
14 -9 30 1 17 5 30 10 30 4 0 8 -13 8 -30z m-125 10 c-3 -5 1 -10 9 -10 9 0
16 5 16 10 0 6 16 10 35 10 31 0 35 -3 35 -25 0 -25 -1 -25 -85 -25 -84 0 -85
0 -85 25 0 23 4 25 41 25 24 0 38 -4 34 -10z"/>
<path d="M749 3374 c-10 -12 -9 -18 4 -31 13 -13 19 -14 31 -3 21 17 20 27 -3
39 -14 8 -22 7 -32 -5z"/>
<path d="M1575 4186 c-18 -26 -11 -52 16 -67 43 -22 86 36 53 72 -23 26 -50
24 -69 -5z m63 -24 c4 -28 -24 -40 -45 -19 -21 21 -9 49 19 45 15 -2 24 -11
26 -26z"/>
<path d="M1296 3941 c-34 -37 10 -94 54 -71 27 14 27 65 1 80 -27 14 -35 13
-55 -9z m58 -17 c7 -19 -10 -44 -31 -44 -17 0 -27 24 -19 45 7 20 42 19 50 -1z"/>
<path d="M1296 3565 c-19 -19 -20 -29 -6 -56 14 -26 55 -24 74 3 13 19 14 25
2 43 -17 26 -49 31 -70 10z m59 -30 c0 -22 -31 -33 -47 -17 -17 17 -1 44 24
40 15 -2 23 -10 23 -23z"/>
<path d="M1576 3309 c-15 -22 -11 -48 8 -61 21 -14 55 -8 66 11 14 27 13 37
-6 55 -22 22 -50 20 -68 -5z m59 -24 c0 -22 -31 -33 -47 -17 -17 17 -1 44 24
40 15 -2 23 -10 23 -23z"/>
<path d="M5440 4160 c0 -11 4 -20 9 -20 5 0 7 9 4 20 -3 11 -7 20 -9 20 -2 0
-4 -9 -4 -20z"/>
<path d="M1557 3994 c-4 -4 -7 -22 -7 -41 0 -30 3 -33 30 -33 20 0 30 5 30 15
0 8 -6 15 -13 15 -8 0 -13 10 -13 21 1 22 -15 35 -27 23z"/>
<path d="M5180 3960 c0 -38 2 -40 30 -40 27 0 30 3 30 34 0 33 -13 46 -46 46
-10 0 -14 -12 -14 -40z m45 -2 c1 -20 -2 -24 -11 -17 -8 7 -14 6 -17 -3 -3 -7
-6 2 -6 20 -1 27 3 33 17 30 11 -2 17 -13 17 -30z"/>
<path d="M5200 3970 c0 -5 5 -10 10 -10 6 0 10 5 10 10 0 6 -4 10 -10 10 -5 0
-10 -4 -10 -10z"/>
<path d="M5192 3571 c-8 -4 -12 -19 -10 -32 2 -18 9 -24 28 -24 28 0 39 27 20
50 -14 17 -20 18 -38 6z"/>
<path d="M2207 3563 c-15 -14 -7 -43 12 -43 26 0 36 17 21 35 -14 16 -23 19
-33 8z"/>
<path d="M5402 3285 c0 -16 2 -22 5 -12 2 9 2 23 0 30 -3 6 -5 -1 -5 -18z"/>
<path d="M5447 3304 c-4 -4 -7 -16 -7 -26 0 -14 6 -19 23 -16 14 2 22 10 22
23 0 20 -25 32 -38 19z m33 -19 c0 -8 -7 -15 -15 -15 -8 0 -15 7 -15 15 0 8 7
15 15 15 8 0 15 -7 15 -15z"/>
<path d="M4370 2225 c0 -9 5 -15 11 -13 6 2 11 8 11 13 0 5 -5 11 -11 13 -6 2
-11 -4 -11 -13z"/>
<path d="M4370 1535 c0 -9 5 -15 11 -13 6 2 11 8 11 13 0 5 -5 11 -11 13 -6 2
-11 -4 -11 -13z"/>
<path d="M2406 2853 c-11 -11 -6 -23 9 -23 8 0 15 4 15 9 0 13 -16 22 -24 14z"/>
<path d="M2400 2474 c0 -9 5 -14 12 -12 18 6 21 28 4 28 -9 0 -16 -7 -16 -16z"/>
<path d="M2400 2225 c0 -8 7 -15 15 -15 8 0 15 7 15 15 0 8 -7 15 -15 15 -8 0
-15 -7 -15 -15z"/>
<path d="M2400 1534 c0 -17 22 -14 28 4 2 7 -3 12 -12 12 -9 0 -16 -7 -16 -16z"/>
<path d="M2412 1418 c4 -30 43 -33 43 -3 0 13 -8 21 -23 23 -20 3 -23 0 -20
-20z"/>
</g>
</svg>
